<svg width="275" height="232" viewBox="0 0 275 232" fill="none" xmlns="http://www.w3.org/2000/svg">
    <ellipse cx="274.143" cy="174" rx="0.857143" ry="1" transform="rotate(-180 274.143 174)" fill="white" fill-opacity="0.2"/>
    <ellipse cx="274" cy="159" rx="1" ry="1" transform="rotate(-180 274 159)" fill="white" fill-opacity="0.2"/>
    <ellipse cx="274.143" cy="145" rx="0.857143" ry="1" transform="rotate(-180 274.143 145)" fill="white" fill-opacity="0.2"/>
    <ellipse cx="274.143" cy="131" rx="0.857143" ry="1" transform="rotate(-180 274.143 131)" fill="white" fill-opacity="0.2"/>
    <ellipse cx="274" cy="116" rx="1" ry="1" transform="rotate(-180 274 116)" fill="white" fill-opacity="0.2"/>
    <ellipse cx="274.143" cy="102" rx="0.857143" ry="1" transform="rotate(-180 274.143 102)" fill="white" fill-opacity="0.2"/>
    <ellipse cx="274" cy="87" rx="1" ry="1" transform="rotate(-180 274 87)" fill="white" fill-opacity="0.2"/>
    <ellipse cx="274" cy="73" rx="1" ry="1" transform="rotate(-180 274 73)" fill="white" fill-opacity="0.2"/>
    <ellipse cx="274.143" cy="59" rx="0.857143" ry="1" transform="rotate(-180 274.143 59)" fill="white" fill-opacity="0.2"/>
    <ellipse cx="274" cy="231" rx="1" ry="1" transform="rotate(-180 274 231)" fill="white" fill-opacity="0.2"/>
    <ellipse cx="274" cy="44" rx="1" ry="1" transform="rotate(-180 274 44)" fill="white" fill-opacity="0.2"/>
    <ellipse cx="274.143" cy="217" rx="0.857143" ry="1" transform="rotate(-180 274.143 217)" fill="white" fill-opacity="0.2"/>
    <ellipse cx="274" cy="30" rx="1" ry="1" transform="rotate(-180 274 30)" fill="white" fill-opacity="0.2"/>
    <ellipse cx="274" cy="202" rx="1" ry="1" transform="rotate(-180 274 202)" fill="white" fill-opacity="0.2"/>
    <ellipse cx="274.143" cy="16" rx="0.857143" ry="1" transform="rotate(-180 274.143 16)" fill="white" fill-opacity="0.2"/>
    <ellipse cx="274" cy="188" rx="1" ry="1" transform="rotate(-180 274 188)" fill="white" fill-opacity="0.2"/>
    <ellipse cx="274" cy="1" rx="1" ry="1" transform="rotate(-180 274 1)" fill="white" fill-opacity="0.2"/>
    <ellipse cx="245.143" cy="174" rx="0.857143" ry="1" transform="rotate(-180 245.143 174)" fill="white" fill-opacity="0.2"/>
    <ellipse cx="245" cy="159" rx="1" ry="1" transform="rotate(-180 245 159)" fill="white" fill-opacity="0.2"/>
    <ellipse cx="245.143" cy="145" rx="0.857143" ry="1" transform="rotate(-180 245.143 145)" fill="white" fill-opacity="0.2"/>
    <ellipse cx="245.143" cy="131" rx="0.857143" ry="1" transform="rotate(-180 245.143 131)" fill="white" fill-opacity="0.2"/>
    <ellipse cx="245" cy="116" rx="1" ry="1" transform="rotate(-180 245 116)" fill="white" fill-opacity="0.2"/>
    <ellipse cx="245.143" cy="102" rx="0.857143" ry="1" transform="rotate(-180 245.143 102)" fill="white" fill-opacity="0.2"/>
    <ellipse cx="245" cy="87" rx="1" ry="1" transform="rotate(-180 245 87)" fill="white" fill-opacity="0.2"/>
    <ellipse cx="245" cy="73" rx="1" ry="1" transform="rotate(-180 245 73)" fill="white" fill-opacity="0.2"/>
    <ellipse cx="245.143" cy="59" rx="0.857143" ry="1" transform="rotate(-180 245.143 59)" fill="white" fill-opacity="0.2"/>
    <ellipse cx="245" cy="231" rx="1" ry="1" transform="rotate(-180 245 231)" fill="white" fill-opacity="0.2"/>
    <ellipse cx="245" cy="44" rx="1" ry="1" transform="rotate(-180 245 44)" fill="white" fill-opacity="0.2"/>
    <ellipse cx="245.143" cy="217" rx="0.857143" ry="1" transform="rotate(-180 245.143 217)" fill="white" fill-opacity="0.2"/>
    <ellipse cx="245" cy="30" rx="1" ry="1" transform="rotate(-180 245 30)" fill="white" fill-opacity="0.2"/>
    <ellipse cx="245" cy="202" rx="1" ry="1" transform="rotate(-180 245 202)" fill="white" fill-opacity="0.2"/>
    <ellipse cx="245.143" cy="16" rx="0.857143" ry="1" transform="rotate(-180 245.143 16)" fill="white" fill-opacity="0.2"/>
    <ellipse cx="245" cy="188" rx="1" ry="1" transform="rotate(-180 245 188)" fill="white" fill-opacity="0.2"/>
    <ellipse cx="245" cy="1" rx="1" ry="1" transform="rotate(-180 245 1)" fill="white" fill-opacity="0.2"/>
    <ellipse cx="217" cy="174" rx="1" ry="1" transform="rotate(-180 217 174)" fill="white" fill-opacity="0.2"/>
    <ellipse cx="216.833" cy="159" rx="1.16667" ry="1" transform="rotate(-180 216.833 159)" fill="white" fill-opacity="0.2"/>
    <ellipse cx="217" cy="145" rx="1" ry="1" transform="rotate(-180 217 145)" fill="white" fill-opacity="0.2"/>
    <ellipse cx="217" cy="131" rx="1" ry="1" transform="rotate(-180 217 131)" fill="white" fill-opacity="0.2"/>
    <ellipse cx="216.833" cy="116" rx="1.16667" ry="1" transform="rotate(-180 216.833 116)" fill="white" fill-opacity="0.2"/>
    <ellipse cx="217" cy="102" rx="1" ry="1" transform="rotate(-180 217 102)" fill="white" fill-opacity="0.2"/>
    <ellipse cx="216.833" cy="87" rx="1.16667" ry="1" transform="rotate(-180 216.833 87)" fill="white" fill-opacity="0.2"/>
    <ellipse cx="216.833" cy="73" rx="1.16667" ry="1" transform="rotate(-180 216.833 73)" fill="white" fill-opacity="0.2"/>
    <ellipse cx="217" cy="59" rx="1" ry="1" transform="rotate(-180 217 59)" fill="white" fill-opacity="0.2"/>
    <ellipse cx="216.833" cy="231" rx="1.16667" ry="1" transform="rotate(-180 216.833 231)" fill="white" fill-opacity="0.2"/>
    <ellipse cx="216.833" cy="44" rx="1.16667" ry="1" transform="rotate(-180 216.833 44)" fill="white" fill-opacity="0.2"/>
    <ellipse cx="217" cy="217" rx="1" ry="1" transform="rotate(-180 217 217)" fill="white" fill-opacity="0.2"/>
    <ellipse cx="216.833" cy="30" rx="1.16667" ry="1" transform="rotate(-180 216.833 30)" fill="white" fill-opacity="0.2"/>
    <ellipse cx="216.833" cy="202" rx="1.16667" ry="1" transform="rotate(-180 216.833 202)" fill="white" fill-opacity="0.2"/>
    <ellipse cx="217" cy="16" rx="1" ry="1" transform="rotate(-180 217 16)" fill="white" fill-opacity="0.2"/>
    <ellipse cx="216.833" cy="188" rx="1.16667" ry="1" transform="rotate(-180 216.833 188)" fill="white" fill-opacity="0.2"/>
    <ellipse cx="216.833" cy="1" rx="1.16667" ry="1" transform="rotate(-180 216.833 1)" fill="white" fill-opacity="0.2"/>
    <ellipse cx="188.143" cy="174" rx="0.857143" ry="1" transform="rotate(-180 188.143 174)" fill="white" fill-opacity="0.2"/>
    <ellipse cx="188" cy="159" rx="1" ry="1" transform="rotate(-180 188 159)" fill="white" fill-opacity="0.2"/>
    <ellipse cx="188.143" cy="145" rx="0.857143" ry="1" transform="rotate(-180 188.143 145)" fill="white" fill-opacity="0.2"/>
    <ellipse cx="188.143" cy="131" rx="0.857143" ry="1" transform="rotate(-180 188.143 131)" fill="white" fill-opacity="0.2"/>
    <ellipse cx="188" cy="116" rx="1" ry="1" transform="rotate(-180 188 116)" fill="white" fill-opacity="0.2"/>
    <ellipse cx="188.143" cy="102" rx="0.857143" ry="1" transform="rotate(-180 188.143 102)" fill="white" fill-opacity="0.2"/>
    <ellipse cx="188" cy="87" rx="1" ry="1" transform="rotate(-180 188 87)" fill="white" fill-opacity="0.2"/>
    <ellipse cx="188" cy="73" rx="1" ry="1" transform="rotate(-180 188 73)" fill="white" fill-opacity="0.2"/>
    <ellipse cx="188.143" cy="59" rx="0.857143" ry="1" transform="rotate(-180 188.143 59)" fill="white" fill-opacity="0.2"/>
    <ellipse cx="188" cy="231" rx="1" ry="1" transform="rotate(-180 188 231)" fill="white" fill-opacity="0.2"/>
    <ellipse cx="188" cy="44" rx="1" ry="1" transform="rotate(-180 188 44)" fill="white" fill-opacity="0.2"/>
    <ellipse cx="188.143" cy="217" rx="0.857143" ry="1" transform="rotate(-180 188.143 217)" fill="white" fill-opacity="0.2"/>
    <ellipse cx="188" cy="30" rx="1" ry="1" transform="rotate(-180 188 30)" fill="white" fill-opacity="0.2"/>
    <ellipse cx="188" cy="202" rx="1" ry="1" transform="rotate(-180 188 202)" fill="white" fill-opacity="0.2"/>
    <ellipse cx="188.143" cy="16" rx="0.857143" ry="1" transform="rotate(-180 188.143 16)" fill="white" fill-opacity="0.2"/>
    <ellipse cx="188" cy="188" rx="1" ry="1" transform="rotate(-180 188 188)" fill="white" fill-opacity="0.2"/>
    <ellipse cx="188" cy="1" rx="1" ry="1" transform="rotate(-180 188 1)" fill="white" fill-opacity="0.2"/>
    <ellipse cx="159.143" cy="174" rx="0.857143" ry="1" transform="rotate(-180 159.143 174)" fill="white" fill-opacity="0.2"/>
    <ellipse cx="159" cy="159" rx="1" ry="1" transform="rotate(-180 159 159)" fill="white" fill-opacity="0.2"/>
    <ellipse cx="159.143" cy="145" rx="0.857143" ry="1" transform="rotate(-180 159.143 145)" fill="white" fill-opacity="0.2"/>
    <ellipse cx="159.143" cy="131" rx="0.857143" ry="1" transform="rotate(-180 159.143 131)" fill="white" fill-opacity="0.2"/>
    <ellipse cx="159" cy="116" rx="1" ry="1" transform="rotate(-180 159 116)" fill="white" fill-opacity="0.2"/>
    <ellipse cx="159.143" cy="102" rx="0.857143" ry="1" transform="rotate(-180 159.143 102)" fill="white" fill-opacity="0.2"/>
    <ellipse cx="159" cy="87" rx="1" ry="1" transform="rotate(-180 159 87)" fill="white" fill-opacity="0.2"/>
    <ellipse cx="159" cy="73" rx="1" ry="1" transform="rotate(-180 159 73)" fill="white" fill-opacity="0.2"/>
    <ellipse cx="159.143" cy="59" rx="0.857143" ry="1" transform="rotate(-180 159.143 59)" fill="white" fill-opacity="0.2"/>
    <ellipse cx="159" cy="231" rx="1" ry="1" transform="rotate(-180 159 231)" fill="white" fill-opacity="0.2"/>
    <ellipse cx="159" cy="44" rx="1" ry="1" transform="rotate(-180 159 44)" fill="white" fill-opacity="0.2"/>
    <ellipse cx="159.143" cy="217" rx="0.857143" ry="1" transform="rotate(-180 159.143 217)" fill="white" fill-opacity="0.2"/>
    <ellipse cx="159" cy="30" rx="1" ry="1" transform="rotate(-180 159 30)" fill="white" fill-opacity="0.2"/>
    <ellipse cx="159" cy="202" rx="1" ry="1" transform="rotate(-180 159 202)" fill="white" fill-opacity="0.2"/>
    <ellipse cx="159.143" cy="16" rx="0.857143" ry="1" transform="rotate(-180 159.143 16)" fill="white" fill-opacity="0.2"/>
    <ellipse cx="159" cy="188" rx="1" ry="1" transform="rotate(-180 159 188)" fill="white" fill-opacity="0.2"/>
    <ellipse cx="159" cy="1" rx="1" ry="1" transform="rotate(-180 159 1)" fill="white" fill-opacity="0.2"/>
    <ellipse cx="131" cy="174" rx="1" ry="1" transform="rotate(-180 131 174)" fill="white" fill-opacity="0.2"/>
    <ellipse cx="130.833" cy="159" rx="1.16667" ry="1" transform="rotate(-180 130.833 159)" fill="white" fill-opacity="0.2"/>
    <ellipse cx="131" cy="145" rx="1" ry="1" transform="rotate(-180 131 145)" fill="white" fill-opacity="0.2"/>
    <ellipse cx="131" cy="131" rx="1" ry="1" transform="rotate(-180 131 131)" fill="white" fill-opacity="0.2"/>
    <ellipse cx="130.833" cy="116" rx="1.16667" ry="1" transform="rotate(-180 130.833 116)" fill="white" fill-opacity="0.2"/>
    <ellipse cx="131" cy="102" rx="1" ry="1" transform="rotate(-180 131 102)" fill="white" fill-opacity="0.2"/>
    <ellipse cx="130.833" cy="87" rx="1.16667" ry="1" transform="rotate(-180 130.833 87)" fill="white" fill-opacity="0.2"/>
    <ellipse cx="130.833" cy="73" rx="1.16667" ry="1" transform="rotate(-180 130.833 73)" fill="white" fill-opacity="0.2"/>
    <ellipse cx="131" cy="59" rx="1" ry="1" transform="rotate(-180 131 59)" fill="white" fill-opacity="0.2"/>
    <ellipse cx="130.833" cy="231" rx="1.16667" ry="1" transform="rotate(-180 130.833 231)" fill="white" fill-opacity="0.2"/>
    <ellipse cx="130.833" cy="44" rx="1.16667" ry="1" transform="rotate(-180 130.833 44)" fill="white" fill-opacity="0.2"/>
    <ellipse cx="131" cy="217" rx="1" ry="1" transform="rotate(-180 131 217)" fill="white" fill-opacity="0.2"/>
    <ellipse cx="130.833" cy="30" rx="1.16667" ry="1" transform="rotate(-180 130.833 30)" fill="white" fill-opacity="0.2"/>
    <ellipse cx="130.833" cy="202" rx="1.16667" ry="1" transform="rotate(-180 130.833 202)" fill="white" fill-opacity="0.2"/>
    <ellipse cx="131" cy="16" rx="1" ry="1" transform="rotate(-180 131 16)" fill="white" fill-opacity="0.2"/>
    <ellipse cx="130.833" cy="188" rx="1.16667" ry="1" transform="rotate(-180 130.833 188)" fill="white" fill-opacity="0.2"/>
    <ellipse cx="130.833" cy="1" rx="1.16667" ry="1" transform="rotate(-180 130.833 1)" fill="white" fill-opacity="0.2"/>
    <ellipse cx="102" cy="174" rx="1" ry="1" transform="rotate(-180 102 174)" fill="white" fill-opacity="0.2"/>
    <ellipse cx="101.833" cy="159" rx="1.16667" ry="1" transform="rotate(-180 101.833 159)" fill="white" fill-opacity="0.2"/>
    <ellipse cx="102" cy="145" rx="1" ry="1" transform="rotate(-180 102 145)" fill="white" fill-opacity="0.2"/>
    <ellipse cx="102" cy="131" rx="1" ry="1" transform="rotate(-180 102 131)" fill="white" fill-opacity="0.2"/>
    <ellipse cx="101.833" cy="116" rx="1.16667" ry="1" transform="rotate(-180 101.833 116)" fill="white" fill-opacity="0.2"/>
    <ellipse cx="102" cy="102" rx="1" ry="1" transform="rotate(-180 102 102)" fill="white" fill-opacity="0.2"/>
    <ellipse cx="101.833" cy="87" rx="1.16667" ry="1" transform="rotate(-180 101.833 87)" fill="white" fill-opacity="0.2"/>
    <ellipse cx="101.833" cy="73" rx="1.16667" ry="1" transform="rotate(-180 101.833 73)" fill="white" fill-opacity="0.2"/>
    <ellipse cx="102" cy="59" rx="1" ry="1" transform="rotate(-180 102 59)" fill="white" fill-opacity="0.2"/>
    <ellipse cx="101.833" cy="231" rx="1.16667" ry="1" transform="rotate(-180 101.833 231)" fill="white" fill-opacity="0.2"/>
    <ellipse cx="101.833" cy="44" rx="1.16667" ry="1" transform="rotate(-180 101.833 44)" fill="white" fill-opacity="0.2"/>
    <ellipse cx="102" cy="217" rx="1" ry="1" transform="rotate(-180 102 217)" fill="white" fill-opacity="0.2"/>
    <ellipse cx="101.833" cy="30" rx="1.16667" ry="1" transform="rotate(-180 101.833 30)" fill="white" fill-opacity="0.2"/>
    <ellipse cx="101.833" cy="202" rx="1.16667" ry="1" transform="rotate(-180 101.833 202)" fill="white" fill-opacity="0.2"/>
    <ellipse cx="102" cy="16" rx="1" ry="1" transform="rotate(-180 102 16)" fill="white" fill-opacity="0.2"/>
    <ellipse cx="101.833" cy="188" rx="1.16667" ry="1" transform="rotate(-180 101.833 188)" fill="white" fill-opacity="0.2"/>
    <ellipse cx="101.833" cy="1" rx="1.16667" ry="1" transform="rotate(-180 101.833 1)" fill="white" fill-opacity="0.2"/>
    <ellipse cx="73.1429" cy="174" rx="0.857143" ry="1" transform="rotate(-180 73.1429 174)" fill="white" fill-opacity="0.2"/>
    <ellipse cx="73" cy="159" rx="1" ry="1" transform="rotate(-180 73 159)" fill="white" fill-opacity="0.2"/>
    <ellipse cx="73.1429" cy="145" rx="0.857143" ry="1" transform="rotate(-180 73.1429 145)" fill="white" fill-opacity="0.2"/>
    <ellipse cx="73.1429" cy="131" rx="0.857143" ry="1" transform="rotate(-180 73.1429 131)" fill="white" fill-opacity="0.2"/>
    <ellipse cx="73" cy="116" rx="1" ry="1" transform="rotate(-180 73 116)" fill="white" fill-opacity="0.2"/>
    <ellipse cx="73.1429" cy="102" rx="0.857143" ry="1" transform="rotate(-180 73.1429 102)" fill="white" fill-opacity="0.2"/>
    <ellipse cx="73" cy="87" rx="1" ry="1" transform="rotate(-180 73 87)" fill="white" fill-opacity="0.2"/>
    <ellipse cx="73" cy="73" rx="1" ry="1" transform="rotate(-180 73 73)" fill="white" fill-opacity="0.2"/>
    <ellipse cx="73.1429" cy="59" rx="0.857143" ry="1" transform="rotate(-180 73.1429 59)" fill="white" fill-opacity="0.2"/>
    <ellipse cx="73" cy="231" rx="1" ry="1" transform="rotate(-180 73 231)" fill="white" fill-opacity="0.2"/>
    <ellipse cx="73" cy="44" rx="1" ry="1" transform="rotate(-180 73 44)" fill="white" fill-opacity="0.2"/>
    <ellipse cx="73.1429" cy="217" rx="0.857143" ry="1" transform="rotate(-180 73.1429 217)" fill="white" fill-opacity="0.2"/>
    <ellipse cx="73" cy="30" rx="1" ry="1" transform="rotate(-180 73 30)" fill="white" fill-opacity="0.2"/>
    <ellipse cx="73" cy="202" rx="1" ry="1" transform="rotate(-180 73 202)" fill="white" fill-opacity="0.2"/>
    <ellipse cx="73.1429" cy="16" rx="0.857143" ry="1" transform="rotate(-180 73.1429 16)" fill="white" fill-opacity="0.2"/>
    <ellipse cx="73" cy="188" rx="1" ry="1" transform="rotate(-180 73 188)" fill="white" fill-opacity="0.2"/>
    <ellipse cx="73" cy="1" rx="1" ry="1" transform="rotate(-180 73 1)" fill="white" fill-opacity="0.2"/>
    <ellipse cx="44.1429" cy="174" rx="0.857143" ry="1" transform="rotate(-180 44.1429 174)" fill="white" fill-opacity="0.2"/>
    <ellipse cx="44" cy="159" rx="1" ry="1" transform="rotate(-180 44 159)" fill="white" fill-opacity="0.2"/>
    <ellipse cx="44.1429" cy="145" rx="0.857143" ry="1" transform="rotate(-180 44.1429 145)" fill="white" fill-opacity="0.2"/>
    <ellipse cx="44.1429" cy="131" rx="0.857143" ry="1" transform="rotate(-180 44.1429 131)" fill="white" fill-opacity="0.2"/>
    <ellipse cx="44" cy="116" rx="1" ry="1" transform="rotate(-180 44 116)" fill="white" fill-opacity="0.2"/>
    <ellipse cx="44.1429" cy="102" rx="0.857143" ry="1" transform="rotate(-180 44.1429 102)" fill="white" fill-opacity="0.2"/>
    <ellipse cx="44" cy="87" rx="1" ry="1" transform="rotate(-180 44 87)" fill="white" fill-opacity="0.2"/>
    <ellipse cx="44" cy="73" rx="1" ry="1" transform="rotate(-180 44 73)" fill="white" fill-opacity="0.2"/>
    <ellipse cx="44.1429" cy="59" rx="0.857143" ry="1" transform="rotate(-180 44.1429 59)" fill="white" fill-opacity="0.2"/>
    <ellipse cx="44" cy="231" rx="1" ry="1" transform="rotate(-180 44 231)" fill="white" fill-opacity="0.2"/>
    <ellipse cx="44" cy="44" rx="1" ry="1" transform="rotate(-180 44 44)" fill="white" fill-opacity="0.2"/>
    <ellipse cx="44.1429" cy="217" rx="0.857143" ry="1" transform="rotate(-180 44.1429 217)" fill="white" fill-opacity="0.2"/>
    <ellipse cx="44" cy="30" rx="1" ry="1" transform="rotate(-180 44 30)" fill="white" fill-opacity="0.2"/>
    <ellipse cx="44" cy="202" rx="1" ry="1" transform="rotate(-180 44 202)" fill="white" fill-opacity="0.2"/>
    <ellipse cx="44.1429" cy="16" rx="0.857143" ry="1" transform="rotate(-180 44.1429 16)" fill="white" fill-opacity="0.2"/>
    <ellipse cx="44" cy="188" rx="1" ry="1" transform="rotate(-180 44 188)" fill="white" fill-opacity="0.2"/>
    <ellipse cx="44" cy="1" rx="1" ry="1" transform="rotate(-180 44 1)" fill="white" fill-opacity="0.2"/>
    <ellipse cx="16" cy="174" rx="1" ry="1" transform="rotate(-180 16 174)" fill="white" fill-opacity="0.2"/>
    <ellipse cx="15.8333" cy="159" rx="1.16667" ry="1" transform="rotate(-180 15.8333 159)" fill="white" fill-opacity="0.2"/>
    <ellipse cx="16" cy="145" rx="1" ry="1" transform="rotate(-180 16 145)" fill="white" fill-opacity="0.2"/>
    <ellipse cx="16" cy="131" rx="1" ry="1" transform="rotate(-180 16 131)" fill="white" fill-opacity="0.2"/>
    <ellipse cx="15.8333" cy="116" rx="1.16667" ry="1" transform="rotate(-180 15.8333 116)" fill="white" fill-opacity="0.2"/>
    <ellipse cx="16" cy="102" rx="1" ry="1" transform="rotate(-180 16 102)" fill="white" fill-opacity="0.2"/>
    <ellipse cx="15.8333" cy="87" rx="1.16667" ry="1" transform="rotate(-180 15.8333 87)" fill="white" fill-opacity="0.2"/>
    <ellipse cx="15.8333" cy="73" rx="1.16667" ry="1" transform="rotate(-180 15.8333 73)" fill="white" fill-opacity="0.2"/>
    <ellipse cx="16" cy="59" rx="1" ry="1" transform="rotate(-180 16 59)" fill="white" fill-opacity="0.2"/>
    <ellipse cx="15.8333" cy="231" rx="1.16667" ry="1" transform="rotate(-180 15.8333 231)" fill="white" fill-opacity="0.2"/>
    <ellipse cx="15.8333" cy="44" rx="1.16667" ry="1" transform="rotate(-180 15.8333 44)" fill="white" fill-opacity="0.2"/>
    <ellipse cx="16" cy="217" rx="1" ry="1" transform="rotate(-180 16 217)" fill="white" fill-opacity="0.2"/>
    <ellipse cx="15.8333" cy="30" rx="1.16667" ry="1" transform="rotate(-180 15.8333 30)" fill="white" fill-opacity="0.2"/>
    <ellipse cx="15.8333" cy="202" rx="1.16667" ry="1" transform="rotate(-180 15.8333 202)" fill="white" fill-opacity="0.2"/>
    <ellipse cx="16" cy="16" rx="1" ry="1" transform="rotate(-180 16 16)" fill="white" fill-opacity="0.2"/>
    <ellipse cx="15.8333" cy="188" rx="1.16667" ry="1" transform="rotate(-180 15.8333 188)" fill="white" fill-opacity="0.2"/>
    <ellipse cx="15.8333" cy="1" rx="1.16667" ry="1" transform="rotate(-180 15.8333 1)" fill="white" fill-opacity="0.2"/>
    <ellipse cx="260" cy="174" rx="1" ry="1" transform="rotate(-180 260 174)" fill="white" fill-opacity="0.2"/>
    <ellipse cx="259.833" cy="159" rx="1.16667" ry="1" transform="rotate(-180 259.833 159)" fill="white" fill-opacity="0.2"/>
    <ellipse cx="260" cy="145" rx="1" ry="1" transform="rotate(-180 260 145)" fill="white" fill-opacity="0.2"/>
    <ellipse cx="260" cy="131" rx="1" ry="1" transform="rotate(-180 260 131)" fill="white" fill-opacity="0.2"/>
    <ellipse cx="259.833" cy="116" rx="1.16667" ry="1" transform="rotate(-180 259.833 116)" fill="white" fill-opacity="0.2"/>
    <ellipse cx="260" cy="102" rx="1" ry="1" transform="rotate(-180 260 102)" fill="white" fill-opacity="0.2"/>
    <ellipse cx="259.833" cy="87" rx="1.16667" ry="1" transform="rotate(-180 259.833 87)" fill="white" fill-opacity="0.2"/>
    <ellipse cx="259.833" cy="73" rx="1.16667" ry="1" transform="rotate(-180 259.833 73)" fill="white" fill-opacity="0.2"/>
    <ellipse cx="260" cy="59" rx="1" ry="1" transform="rotate(-180 260 59)" fill="white" fill-opacity="0.2"/>
    <ellipse cx="259.833" cy="231" rx="1.16667" ry="1" transform="rotate(-180 259.833 231)" fill="white" fill-opacity="0.2"/>
    <ellipse cx="259.833" cy="44" rx="1.16667" ry="1" transform="rotate(-180 259.833 44)" fill="white" fill-opacity="0.2"/>
    <ellipse cx="260" cy="217" rx="1" ry="1" transform="rotate(-180 260 217)" fill="white" fill-opacity="0.2"/>
    <ellipse cx="259.833" cy="30" rx="1.16667" ry="1" transform="rotate(-180 259.833 30)" fill="white" fill-opacity="0.2"/>
    <ellipse cx="259.833" cy="202" rx="1.16667" ry="1" transform="rotate(-180 259.833 202)" fill="white" fill-opacity="0.2"/>
    <ellipse cx="260" cy="16" rx="1" ry="1" transform="rotate(-180 260 16)" fill="white" fill-opacity="0.2"/>
    <ellipse cx="259.833" cy="188" rx="1.16667" ry="1" transform="rotate(-180 259.833 188)" fill="white" fill-opacity="0.2"/>
    <ellipse cx="259.833" cy="1" rx="1.16667" ry="1" transform="rotate(-180 259.833 1)" fill="white" fill-opacity="0.2"/>
    <ellipse cx="231.143" cy="174" rx="0.857143" ry="1" transform="rotate(-180 231.143 174)" fill="white" fill-opacity="0.2"/>
    <ellipse cx="231" cy="159" rx="1" ry="1" transform="rotate(-180 231 159)" fill="white" fill-opacity="0.2"/>
    <ellipse cx="231.143" cy="145" rx="0.857143" ry="1" transform="rotate(-180 231.143 145)" fill="white" fill-opacity="0.2"/>
    <ellipse cx="231.143" cy="131" rx="0.857143" ry="1" transform="rotate(-180 231.143 131)" fill="white" fill-opacity="0.2"/>
    <ellipse cx="231" cy="116" rx="1" ry="1" transform="rotate(-180 231 116)" fill="white" fill-opacity="0.2"/>
    <ellipse cx="231.143" cy="102" rx="0.857143" ry="1" transform="rotate(-180 231.143 102)" fill="white" fill-opacity="0.2"/>
    <ellipse cx="231" cy="87" rx="1" ry="1" transform="rotate(-180 231 87)" fill="white" fill-opacity="0.2"/>
    <ellipse cx="231" cy="73" rx="1" ry="1" transform="rotate(-180 231 73)" fill="white" fill-opacity="0.2"/>
    <ellipse cx="231.143" cy="59" rx="0.857143" ry="1" transform="rotate(-180 231.143 59)" fill="white" fill-opacity="0.2"/>
    <ellipse cx="231" cy="231" rx="1" ry="1" transform="rotate(-180 231 231)" fill="white" fill-opacity="0.2"/>
    <ellipse cx="231" cy="44" rx="1" ry="1" transform="rotate(-180 231 44)" fill="white" fill-opacity="0.2"/>
    <ellipse cx="231.143" cy="217" rx="0.857143" ry="1" transform="rotate(-180 231.143 217)" fill="white" fill-opacity="0.2"/>
    <ellipse cx="231" cy="30" rx="1" ry="1" transform="rotate(-180 231 30)" fill="white" fill-opacity="0.2"/>
    <ellipse cx="231" cy="202" rx="1" ry="1" transform="rotate(-180 231 202)" fill="white" fill-opacity="0.2"/>
    <ellipse cx="231.143" cy="16" rx="0.857143" ry="1" transform="rotate(-180 231.143 16)" fill="white" fill-opacity="0.2"/>
    <ellipse cx="231" cy="188" rx="1" ry="1" transform="rotate(-180 231 188)" fill="white" fill-opacity="0.2"/>
    <ellipse cx="231" cy="1" rx="1" ry="1" transform="rotate(-180 231 1)" fill="white" fill-opacity="0.2"/>
    <ellipse cx="202.143" cy="174" rx="0.857143" ry="1" transform="rotate(-180 202.143 174)" fill="white" fill-opacity="0.2"/>
    <ellipse cx="202" cy="159" rx="1" ry="1" transform="rotate(-180 202 159)" fill="white" fill-opacity="0.2"/>
    <ellipse cx="202.143" cy="145" rx="0.857143" ry="1" transform="rotate(-180 202.143 145)" fill="white" fill-opacity="0.2"/>
    <ellipse cx="202.143" cy="131" rx="0.857143" ry="1" transform="rotate(-180 202.143 131)" fill="white" fill-opacity="0.2"/>
    <ellipse cx="202" cy="116" rx="1" ry="1" transform="rotate(-180 202 116)" fill="white" fill-opacity="0.2"/>
    <ellipse cx="202.143" cy="102" rx="0.857143" ry="1" transform="rotate(-180 202.143 102)" fill="white" fill-opacity="0.2"/>
    <ellipse cx="202" cy="87" rx="1" ry="1" transform="rotate(-180 202 87)" fill="white" fill-opacity="0.2"/>
    <ellipse cx="202" cy="73" rx="1" ry="1" transform="rotate(-180 202 73)" fill="white" fill-opacity="0.2"/>
    <ellipse cx="202.143" cy="59" rx="0.857143" ry="1" transform="rotate(-180 202.143 59)" fill="white" fill-opacity="0.2"/>
    <ellipse cx="202" cy="231" rx="1" ry="1" transform="rotate(-180 202 231)" fill="white" fill-opacity="0.2"/>
    <ellipse cx="202" cy="44" rx="1" ry="1" transform="rotate(-180 202 44)" fill="white" fill-opacity="0.2"/>
    <ellipse cx="202.143" cy="217" rx="0.857143" ry="1" transform="rotate(-180 202.143 217)" fill="white" fill-opacity="0.2"/>
    <ellipse cx="202" cy="30" rx="1" ry="1" transform="rotate(-180 202 30)" fill="white" fill-opacity="0.2"/>
    <ellipse cx="202" cy="202" rx="1" ry="1" transform="rotate(-180 202 202)" fill="white" fill-opacity="0.2"/>
    <ellipse cx="202.143" cy="16" rx="0.857143" ry="1" transform="rotate(-180 202.143 16)" fill="white" fill-opacity="0.2"/>
    <ellipse cx="202" cy="188" rx="1" ry="1" transform="rotate(-180 202 188)" fill="white" fill-opacity="0.2"/>
    <ellipse cx="202" cy="1" rx="1" ry="1" transform="rotate(-180 202 1)" fill="white" fill-opacity="0.2"/>
    <ellipse cx="174" cy="174" rx="1" ry="1" transform="rotate(-180 174 174)" fill="white" fill-opacity="0.2"/>
    <ellipse cx="173.833" cy="159" rx="1.16667" ry="1" transform="rotate(-180 173.833 159)" fill="white" fill-opacity="0.2"/>
    <ellipse cx="174" cy="145" rx="1" ry="1" transform="rotate(-180 174 145)" fill="white" fill-opacity="0.2"/>
    <ellipse cx="174" cy="131" rx="1" ry="1" transform="rotate(-180 174 131)" fill="white" fill-opacity="0.2"/>
    <ellipse cx="173.833" cy="116" rx="1.16667" ry="1" transform="rotate(-180 173.833 116)" fill="white" fill-opacity="0.2"/>
    <ellipse cx="174" cy="102" rx="1" ry="1" transform="rotate(-180 174 102)" fill="white" fill-opacity="0.2"/>
    <ellipse cx="173.833" cy="87" rx="1.16667" ry="1" transform="rotate(-180 173.833 87)" fill="white" fill-opacity="0.2"/>
    <ellipse cx="173.833" cy="73" rx="1.16667" ry="1" transform="rotate(-180 173.833 73)" fill="white" fill-opacity="0.2"/>
    <ellipse cx="174" cy="59" rx="1" ry="1" transform="rotate(-180 174 59)" fill="white" fill-opacity="0.2"/>
    <ellipse cx="173.833" cy="231" rx="1.16667" ry="1" transform="rotate(-180 173.833 231)" fill="white" fill-opacity="0.2"/>
    <ellipse cx="173.833" cy="44" rx="1.16667" ry="1" transform="rotate(-180 173.833 44)" fill="white" fill-opacity="0.2"/>
    <ellipse cx="174" cy="217" rx="1" ry="1" transform="rotate(-180 174 217)" fill="white" fill-opacity="0.2"/>
    <ellipse cx="173.833" cy="30" rx="1.16667" ry="1" transform="rotate(-180 173.833 30)" fill="white" fill-opacity="0.2"/>
    <ellipse cx="173.833" cy="202" rx="1.16667" ry="1" transform="rotate(-180 173.833 202)" fill="white" fill-opacity="0.2"/>
    <ellipse cx="174" cy="16" rx="1" ry="1" transform="rotate(-180 174 16)" fill="white" fill-opacity="0.2"/>
    <ellipse cx="173.833" cy="188" rx="1.16667" ry="1" transform="rotate(-180 173.833 188)" fill="white" fill-opacity="0.2"/>
    <ellipse cx="173.833" cy="1" rx="1.16667" ry="1" transform="rotate(-180 173.833 1)" fill="white" fill-opacity="0.2"/>
    <ellipse cx="145" cy="174" rx="1" ry="1" transform="rotate(-180 145 174)" fill="white" fill-opacity="0.2"/>
    <ellipse cx="144.833" cy="159" rx="1.16667" ry="1" transform="rotate(-180 144.833 159)" fill="white" fill-opacity="0.2"/>
    <ellipse cx="145" cy="145" rx="1" ry="1" transform="rotate(-180 145 145)" fill="white" fill-opacity="0.2"/>
    <ellipse cx="145" cy="131" rx="1" ry="1" transform="rotate(-180 145 131)" fill="white" fill-opacity="0.2"/>
    <ellipse cx="144.833" cy="116" rx="1.16667" ry="1" transform="rotate(-180 144.833 116)" fill="white" fill-opacity="0.2"/>
    <ellipse cx="145" cy="102" rx="1" ry="1" transform="rotate(-180 145 102)" fill="white" fill-opacity="0.2"/>
    <ellipse cx="144.833" cy="87" rx="1.16667" ry="1" transform="rotate(-180 144.833 87)" fill="white" fill-opacity="0.2"/>
    <ellipse cx="144.833" cy="73" rx="1.16667" ry="1" transform="rotate(-180 144.833 73)" fill="white" fill-opacity="0.2"/>
    <ellipse cx="145" cy="59" rx="1" ry="1" transform="rotate(-180 145 59)" fill="white" fill-opacity="0.2"/>
    <ellipse cx="144.833" cy="231" rx="1.16667" ry="1" transform="rotate(-180 144.833 231)" fill="white" fill-opacity="0.2"/>
    <ellipse cx="144.833" cy="44" rx="1.16667" ry="1" transform="rotate(-180 144.833 44)" fill="white" fill-opacity="0.2"/>
    <ellipse cx="145" cy="217" rx="1" ry="1" transform="rotate(-180 145 217)" fill="white" fill-opacity="0.2"/>
    <ellipse cx="144.833" cy="30" rx="1.16667" ry="1" transform="rotate(-180 144.833 30)" fill="white" fill-opacity="0.2"/>
    <ellipse cx="144.833" cy="202" rx="1.16667" ry="1" transform="rotate(-180 144.833 202)" fill="white" fill-opacity="0.2"/>
    <ellipse cx="145" cy="16" rx="1" ry="1" transform="rotate(-180 145 16)" fill="white" fill-opacity="0.2"/>
    <ellipse cx="144.833" cy="188" rx="1.16667" ry="1" transform="rotate(-180 144.833 188)" fill="white" fill-opacity="0.2"/>
    <ellipse cx="144.833" cy="1" rx="1.16667" ry="1" transform="rotate(-180 144.833 1)" fill="white" fill-opacity="0.2"/>
    <ellipse cx="116.143" cy="174" rx="0.857143" ry="1" transform="rotate(-180 116.143 174)" fill="white" fill-opacity="0.2"/>
    <ellipse cx="116" cy="159" rx="1" ry="1" transform="rotate(-180 116 159)" fill="white" fill-opacity="0.2"/>
    <ellipse cx="116.143" cy="145" rx="0.857143" ry="1" transform="rotate(-180 116.143 145)" fill="white" fill-opacity="0.2"/>
    <ellipse cx="116.143" cy="131" rx="0.857143" ry="1" transform="rotate(-180 116.143 131)" fill="white" fill-opacity="0.2"/>
    <ellipse cx="116" cy="116" rx="1" ry="1" transform="rotate(-180 116 116)" fill="white" fill-opacity="0.2"/>
    <ellipse cx="116.143" cy="102" rx="0.857143" ry="1" transform="rotate(-180 116.143 102)" fill="white" fill-opacity="0.2"/>
    <ellipse cx="116" cy="87" rx="1" ry="1" transform="rotate(-180 116 87)" fill="white" fill-opacity="0.2"/>
    <ellipse cx="116" cy="73" rx="1" ry="1" transform="rotate(-180 116 73)" fill="white" fill-opacity="0.2"/>
    <ellipse cx="116.143" cy="59" rx="0.857143" ry="1" transform="rotate(-180 116.143 59)" fill="white" fill-opacity="0.2"/>
    <ellipse cx="116" cy="231" rx="1" ry="1" transform="rotate(-180 116 231)" fill="white" fill-opacity="0.2"/>
    <ellipse cx="116" cy="44" rx="1" ry="1" transform="rotate(-180 116 44)" fill="white" fill-opacity="0.2"/>
    <ellipse cx="116.143" cy="217" rx="0.857143" ry="1" transform="rotate(-180 116.143 217)" fill="white" fill-opacity="0.2"/>
    <ellipse cx="116" cy="30" rx="1" ry="1" transform="rotate(-180 116 30)" fill="white" fill-opacity="0.2"/>
    <ellipse cx="116" cy="202" rx="1" ry="1" transform="rotate(-180 116 202)" fill="white" fill-opacity="0.2"/>
    <ellipse cx="116.143" cy="16" rx="0.857143" ry="1" transform="rotate(-180 116.143 16)" fill="white" fill-opacity="0.2"/>
    <ellipse cx="116" cy="188" rx="1" ry="1" transform="rotate(-180 116 188)" fill="white" fill-opacity="0.2"/>
    <ellipse cx="116" cy="1" rx="1" ry="1" transform="rotate(-180 116 1)" fill="white" fill-opacity="0.2"/>
    <ellipse cx="87.1429" cy="174" rx="0.857143" ry="1" transform="rotate(-180 87.1429 174)" fill="white" fill-opacity="0.2"/>
    <ellipse cx="87" cy="159" rx="1" ry="1" transform="rotate(-180 87 159)" fill="white" fill-opacity="0.2"/>
    <ellipse cx="87.1429" cy="145" rx="0.857143" ry="1" transform="rotate(-180 87.1429 145)" fill="white" fill-opacity="0.2"/>
    <ellipse cx="87.1429" cy="131" rx="0.857143" ry="1" transform="rotate(-180 87.1429 131)" fill="white" fill-opacity="0.2"/>
    <ellipse cx="87" cy="116" rx="1" ry="1" transform="rotate(-180 87 116)" fill="white" fill-opacity="0.2"/>
    <ellipse cx="87.1429" cy="102" rx="0.857143" ry="1" transform="rotate(-180 87.1429 102)" fill="white" fill-opacity="0.2"/>
    <ellipse cx="87" cy="87" rx="1" ry="1" transform="rotate(-180 87 87)" fill="white" fill-opacity="0.2"/>
    <ellipse cx="87" cy="73" rx="1" ry="1" transform="rotate(-180 87 73)" fill="white" fill-opacity="0.2"/>
    <ellipse cx="87.1429" cy="59" rx="0.857143" ry="1" transform="rotate(-180 87.1429 59)" fill="white" fill-opacity="0.2"/>
    <ellipse cx="87" cy="231" rx="1" ry="1" transform="rotate(-180 87 231)" fill="white" fill-opacity="0.2"/>
    <ellipse cx="87" cy="44" rx="1" ry="1" transform="rotate(-180 87 44)" fill="white" fill-opacity="0.2"/>
    <ellipse cx="87.1429" cy="217" rx="0.857143" ry="1" transform="rotate(-180 87.1429 217)" fill="white" fill-opacity="0.2"/>
    <ellipse cx="87" cy="30" rx="1" ry="1" transform="rotate(-180 87 30)" fill="white" fill-opacity="0.2"/>
    <ellipse cx="87" cy="202" rx="1" ry="1" transform="rotate(-180 87 202)" fill="white" fill-opacity="0.2"/>
    <ellipse cx="87.1429" cy="16" rx="0.857143" ry="1" transform="rotate(-180 87.1429 16)" fill="white" fill-opacity="0.2"/>
    <ellipse cx="87" cy="188" rx="1" ry="1" transform="rotate(-180 87 188)" fill="white" fill-opacity="0.2"/>
    <ellipse cx="87" cy="1" rx="1" ry="1" transform="rotate(-180 87 1)" fill="white" fill-opacity="0.2"/>
    <ellipse cx="59" cy="174" rx="1" ry="1" transform="rotate(-180 59 174)" fill="white" fill-opacity="0.2"/>
    <ellipse cx="58.8333" cy="159" rx="1.16667" ry="1" transform="rotate(-180 58.8333 159)" fill="white" fill-opacity="0.2"/>
    <ellipse cx="59" cy="145" rx="1" ry="1" transform="rotate(-180 59 145)" fill="white" fill-opacity="0.2"/>
    <ellipse cx="59" cy="131" rx="1" ry="1" transform="rotate(-180 59 131)" fill="white" fill-opacity="0.2"/>
    <ellipse cx="58.8333" cy="116" rx="1.16667" ry="1" transform="rotate(-180 58.8333 116)" fill="white" fill-opacity="0.2"/>
    <ellipse cx="59" cy="102" rx="1" ry="1" transform="rotate(-180 59 102)" fill="white" fill-opacity="0.2"/>
    <ellipse cx="58.8333" cy="87" rx="1.16667" ry="1" transform="rotate(-180 58.8333 87)" fill="white" fill-opacity="0.2"/>
    <ellipse cx="58.8333" cy="73" rx="1.16667" ry="1" transform="rotate(-180 58.8333 73)" fill="white" fill-opacity="0.2"/>
    <ellipse cx="59" cy="59" rx="1" ry="1" transform="rotate(-180 59 59)" fill="white" fill-opacity="0.2"/>
    <ellipse cx="58.8333" cy="231" rx="1.16667" ry="1" transform="rotate(-180 58.8333 231)" fill="white" fill-opacity="0.2"/>
    <ellipse cx="58.8333" cy="44" rx="1.16667" ry="1" transform="rotate(-180 58.8333 44)" fill="white" fill-opacity="0.2"/>
    <ellipse cx="59" cy="217" rx="1" ry="1" transform="rotate(-180 59 217)" fill="white" fill-opacity="0.2"/>
    <ellipse cx="58.8333" cy="30" rx="1.16667" ry="1" transform="rotate(-180 58.8333 30)" fill="white" fill-opacity="0.2"/>
    <ellipse cx="58.8333" cy="202" rx="1.16667" ry="1" transform="rotate(-180 58.8333 202)" fill="white" fill-opacity="0.2"/>
    <ellipse cx="59" cy="16" rx="1" ry="1" transform="rotate(-180 59 16)" fill="white" fill-opacity="0.2"/>
    <ellipse cx="58.8333" cy="188" rx="1.16667" ry="1" transform="rotate(-180 58.8333 188)" fill="white" fill-opacity="0.2"/>
    <ellipse cx="58.8333" cy="1" rx="1.16667" ry="1" transform="rotate(-180 58.8333 1)" fill="white" fill-opacity="0.2"/>
    <ellipse cx="30.1429" cy="174" rx="0.857143" ry="1" transform="rotate(-180 30.1429 174)" fill="white" fill-opacity="0.2"/>
    <ellipse cx="30" cy="159" rx="1" ry="1" transform="rotate(-180 30 159)" fill="white" fill-opacity="0.2"/>
    <ellipse cx="30.1429" cy="145" rx="0.857143" ry="1" transform="rotate(-180 30.1429 145)" fill="white" fill-opacity="0.2"/>
    <ellipse cx="30.1429" cy="131" rx="0.857143" ry="1" transform="rotate(-180 30.1429 131)" fill="white" fill-opacity="0.2"/>
    <ellipse cx="30" cy="116" rx="1" ry="1" transform="rotate(-180 30 116)" fill="white" fill-opacity="0.2"/>
    <ellipse cx="30.1429" cy="102" rx="0.857143" ry="1" transform="rotate(-180 30.1429 102)" fill="white" fill-opacity="0.2"/>
    <ellipse cx="30" cy="87" rx="1" ry="1" transform="rotate(-180 30 87)" fill="white" fill-opacity="0.2"/>
    <ellipse cx="30" cy="73" rx="1" ry="1" transform="rotate(-180 30 73)" fill="white" fill-opacity="0.2"/>
    <ellipse cx="30.1429" cy="59" rx="0.857143" ry="1" transform="rotate(-180 30.1429 59)" fill="white" fill-opacity="0.2"/>
    <ellipse cx="30" cy="231" rx="1" ry="1" transform="rotate(-180 30 231)" fill="white" fill-opacity="0.2"/>
    <ellipse cx="30" cy="44" rx="1" ry="1" transform="rotate(-180 30 44)" fill="white" fill-opacity="0.2"/>
    <ellipse cx="30.1429" cy="217" rx="0.857143" ry="1" transform="rotate(-180 30.1429 217)" fill="white" fill-opacity="0.2"/>
    <ellipse cx="30" cy="30" rx="1" ry="1" transform="rotate(-180 30 30)" fill="white" fill-opacity="0.2"/>
    <ellipse cx="30" cy="202" rx="1" ry="1" transform="rotate(-180 30 202)" fill="white" fill-opacity="0.2"/>
    <ellipse cx="30.1429" cy="16" rx="0.857143" ry="1" transform="rotate(-180 30.1429 16)" fill="white" fill-opacity="0.2"/>
    <ellipse cx="30" cy="188" rx="1" ry="1" transform="rotate(-180 30 188)" fill="white" fill-opacity="0.2"/>
    <ellipse cx="30" cy="1" rx="1" ry="1" transform="rotate(-180 30 1)" fill="white" fill-opacity="0.2"/>
    <ellipse cx="1.14286" cy="174" rx="0.857143" ry="1" transform="rotate(-180 1.14286 174)" fill="white" fill-opacity="0.2"/>
    <ellipse cx="1" cy="159" rx="1" ry="1" transform="rotate(-180 1 159)" fill="white" fill-opacity="0.2"/>
    <ellipse cx="1.14286" cy="145" rx="0.857143" ry="1" transform="rotate(-180 1.14286 145)" fill="white" fill-opacity="0.2"/>
    <ellipse cx="1.14286" cy="131" rx="0.857143" ry="1" transform="rotate(-180 1.14286 131)" fill="white" fill-opacity="0.2"/>
    <ellipse cx="1" cy="116" rx="1" ry="1" transform="rotate(-180 1 116)" fill="white" fill-opacity="0.2"/>
    <ellipse cx="1.14286" cy="102" rx="0.857143" ry="1" transform="rotate(-180 1.14286 102)" fill="white" fill-opacity="0.2"/>
    <ellipse cx="1" cy="87" rx="1" ry="1" transform="rotate(-180 1 87)" fill="white" fill-opacity="0.2"/>
    <ellipse cx="1" cy="73" rx="1" ry="1" transform="rotate(-180 1 73)" fill="white" fill-opacity="0.2"/>
    <ellipse cx="1.14286" cy="59" rx="0.857143" ry="1" transform="rotate(-180 1.14286 59)" fill="white" fill-opacity="0.2"/>
    <ellipse cx="1" cy="231" rx="1" ry="1" transform="rotate(-180 1 231)" fill="white" fill-opacity="0.2"/>
    <ellipse cx="1" cy="44" rx="1" ry="1" transform="rotate(-180 1 44)" fill="white" fill-opacity="0.2"/>
    <ellipse cx="1.14286" cy="217" rx="0.857143" ry="1" transform="rotate(-180 1.14286 217)" fill="white" fill-opacity="0.2"/>
    <ellipse cx="1" cy="30" rx="1" ry="1" transform="rotate(-180 1 30)" fill="white" fill-opacity="0.2"/>
    <ellipse cx="1" cy="202" rx="1" ry="1" transform="rotate(-180 1 202)" fill="white" fill-opacity="0.2"/>
    <ellipse cx="1.14286" cy="16" rx="0.857143" ry="1" transform="rotate(-180 1.14286 16)" fill="white" fill-opacity="0.2"/>
    <ellipse cx="1" cy="188" rx="1" ry="1" transform="rotate(-180 1 188)" fill="white" fill-opacity="0.2"/>
    <ellipse cx="1" cy="1" rx="1" ry="1" transform="rotate(-180 1 1)" fill="white" fill-opacity="0.2"/>
</svg>
