<svg width="507" height="62" fill="none" xmlns="http://www.w3.org/2000/svg"><mask id="a" fill="#fff"><path fill-rule="evenodd" clip-rule="evenodd" d="m506.411 31-.001 3.1-.002 1.284-.004.985-.006.83-.006.731-.009.661-.01.608-.012.564-.013.53-.015.502-.016.476-.018.455-.019.435-.021.42-.023.403-.024.39-.025.377-.028.366-.028.355-.031.345-.032.337-.033.328-.035.32-.037.312-.038.305-.04.299-.041.292-.043.287-.044.28-.046.275-.048.27-.049.265-.051.26-.052.255-.055.25-.055.247-.057.243-.059.238-.061.234-.062.231-.063.227-.066.223-.067.22-.068.217-.071.213-.071.21-.074.207-.075.204-.077.2-.078.199-.081.195-.081.192-.084.19-.085.186-.087.184-.089.182-.09.178-.092.177-.094.174-.095.171-.097.17-.099.166-.101.164-.103.162-.104.16-.106.157-.108.156-.109.153-.112.15-.113.15-.115.146-.117.145-.119.142-.12.14-.123.139-.125.136-.126.135-.128.132-.13.13-.133.129-.134.127-.136.124-.138.123-.141.12-.142.12-.144.117-.147.115-.148.113-.151.112-.153.11-.155.108-.157.106-.16.104-.162.103-.164.1-.166.1-.169.097-.172.096-.173.094-.176.092-.179.09-.181.089-.184.087-.187.085-.189.084-.192.082-.195.08-.198.079-.2.077-.204.075-.206.074-.21.072-.213.07-.216.069-.22.067-.223.066-.227.063-.23.063-.234.06-.238.06-.242.056-.247.056-.25.054-.255.053-.259.05-.265.05-.269.048-.275.046-.28.045-.286.043-.292.041-.298.04-.305.038-.311.037-.32.035-.327.034-.336.032-.344.03-.355.03-.365.027-.376.025-.389.025-.402.022-.418.021-.434.02-.453.018-.474.016-.499.015-.528.013-.562.012-.604.01-.656.009-.725.007-.82.006-.97.004-1.249.002-2.346.001H28.026l-1.322-.003-1.001-.004-.84-.005-.738-.007-.666-.008-.61-.01-.569-.012-.533-.013-.503-.014-.478-.017-.456-.017-.437-.02-.42-.02-.405-.023-.391-.024-.378-.025-.367-.027-.356-.029-.346-.03-.337-.032-.329-.033-.32-.035-.313-.036-.306-.039-.3-.04-.292-.04-.287-.043-.281-.044-.276-.047-.27-.047-.265-.05-.26-.05-.256-.052-.251-.054-.247-.056-.243-.057-.238-.058-.235-.06-.23-.063-.228-.063-.224-.066-.22-.066-.217-.069-.213-.07-.21-.072-.208-.073-.204-.075-.2-.077-.199-.078-.195-.08-.193-.082-.19-.083-.186-.085-.185-.087-.181-.089-.18-.09-.176-.092-.174-.093-.172-.096-.169-.096-.167-.1-.164-.1-.163-.102-.16-.104-.157-.106-.156-.108-.153-.11-.15-.11-.15-.114-.147-.115-.144-.117-.143-.118-.14-.12-.14-.123-.136-.124-.134-.127-.133-.128-.13-.13-.129-.132-.127-.134-.124-.136-.123-.138-.121-.14-.12-.142-.117-.145-.115-.146-.113-.148-.112-.15-.11-.154-.108-.155-.107-.157-.104-.16-.103-.16-.1-.165-.1-.166-.098-.169-.095-.17-.094-.174-.093-.176-.09-.179-.089-.18-.087-.184-.086-.187-.083-.189-.083-.192-.08-.194-.079-.198-.077-.2-.075-.203-.074-.207-.072-.21-.07-.212-.07-.216-.067-.22-.065-.222-.064-.227-.063-.23-.06-.233-.06-.238-.057-.242-.056-.246-.054-.25-.053-.254-.05-.26-.05-.264-.048-.269-.047-.274-.044-.28-.044-.285-.041-.291-.04-.298-.039-.304-.036-.311-.036-.319-.033-.326-.033-.335-.03-.344-.03-.354-.027-.364-.025-.376-.025-.387-.023-.402-.02-.416-.02-.433-.018-.451-.017-.473-.015-.497-.013-.525-.012-.559-.01-.6-.01-.651-.007-.719-.005-.811-.004-.955L0 34.338 0 32.238v-4.08l.003-1.364.003-1.019.005-.85.007-.744.008-.67.01-.616.012-.571.013-.535.014-.506.016-.48.018-.458.019-.438.02-.422.023-.405.024-.392.025-.38.027-.367.028-.357.03-.347.032-.338.033-.329.035-.321.037-.314.037-.306.04-.3.041-.293.043-.287.044-.282.046-.276.047-.27.05-.266.05-.26.052-.257.054-.251L1 12.64l.057-.243.059-.24.06-.234.062-.232.063-.227.065-.224.067-.22.068-.218.07-.213.072-.21.073-.208.075-.205.077-.2.078-.2.08-.195.081-.192.083-.19.085-.187.087-.185.088-.182.09-.18.092-.176.094-.174.095-.172.097-.17.098-.167.1-.164.103-.163.104-.16.106-.158.107-.155.11-.154.11-.151.114-.15.114-.146.117-.145.119-.143.12-.14.122-.14.124-.136.127-.135.128-.132.13-.131.131-.129.134-.127.136-.125.138-.123.14-.12.142-.12.144-.117.146-.116.148-.114.15-.111.153-.11.155-.109.157-.106.16-.105.16-.103.165-.1.166-.1.168-.098.171-.096.173-.094.176-.092.178-.091.181-.089.184-.087.186-.086.189-.084.191-.082.195-.08.197-.08.2-.077.203-.075.206-.074.21-.073.212-.07.216-.07.219-.066.222-.066.226-.064.23-.063.234-.06.237-.06.241-.057.246-.056.25-.055.254-.053.259-.05.263-.05.269-.049.274-.046.279-.045.285-.043.29-.042.298-.04.303-.039.311-.037.318-.035.326-.034.334-.032.344-.03.352-.03.364-.027.374-.026.387-.025.4-.023.415-.021.431-.02.45-.018.471-.017.495-.015.523-.013.556-.012.596-.01.647-.01.713-.007.802-.006.94-.004L27.55 0 29.485 0h448.63l1.41.002 1.037.004.86.005.752.007.676.008.618.01.575.01.538.013.507.015.482.016.46.017.44.02.423.02.407.022.393.024.38.025.368.027.358.028.348.03.338.032.33.033.322.034.314.037.307.037.3.04.294.04.288.043.281.044.277.046.271.047.266.05.261.05.256.052.252.053.248.056.243.056.239.059.236.06.231.062.228.063.224.065.221.067.217.068.214.07.211.071.208.073.204.075.202.076.198.078.196.08.193.082.19.083.188.085.184.086.182.088.18.09.177.092.174.093.172.095.17.097.167.098.165.1.163.103.16.104.158.105.156.108.153.109.152.11.149.114.147.114.145.117.143.118.141.12.139.122.137.124.135.126.133.128.13.13.129.132.127.134.125.135.124.138.121.14.119.142.118.143.116.146.113.149.112.15.111.152.108.155.107.157.104.159.103.16.102.164.099.166.098.169.096.17.094.173.093.176.091.178.089.18.087.184.086.186.084.189.082.19.081.195.079.197.078.2.075.203.074.206.073.209.07.212.07.215.067.22.066.221.064.226.063.23.061.233.059.237.058.241.056.245.054.25.053.253.052.259.05.263.048.268.046.274.045.278.044.285.041.29.041.297.038.303.038.31.035.318.034.325.032.333.031.343.029.352.028.362.026.374.025.386.023.399.021.413.02.43.019.449.016.469.016.493.013.52.012.553.011.593.009.642.007.707.006.794.005.927.003 1.16.001 1.81V31Z"/></mask><path fill-rule="evenodd" clip-rule="evenodd" d="m506.411 31-.001 3.1-.002 1.284-.004.985-.006.83-.006.731-.009.661-.01.608-.012.564-.013.53-.015.502-.016.476-.018.455-.019.435-.021.42-.023.403-.024.39-.025.377-.028.366-.028.355-.031.345-.032.337-.033.328-.035.32-.037.312-.038.305-.04.299-.041.292-.043.287-.044.28-.046.275-.048.27-.049.265-.051.26-.052.255-.055.25-.055.247-.057.243-.059.238-.061.234-.062.231-.063.227-.066.223-.067.22-.068.217-.071.213-.071.21-.074.207-.075.204-.077.2-.078.199-.081.195-.081.192-.084.19-.085.186-.087.184-.089.182-.09.178-.092.177-.094.174-.095.171-.097.17-.099.166-.101.164-.103.162-.104.16-.106.157-.108.156-.109.153-.112.15-.113.15-.115.146-.117.145-.119.142-.12.14-.123.139-.125.136-.126.135-.128.132-.13.13-.133.129-.134.127-.136.124-.138.123-.141.12-.142.12-.144.117-.147.115-.148.113-.151.112-.153.11-.155.108-.157.106-.16.104-.162.103-.164.1-.166.1-.169.097-.172.096-.173.094-.176.092-.179.09-.181.089-.184.087-.187.085-.189.084-.192.082-.195.08-.198.079-.2.077-.204.075-.206.074-.21.072-.213.07-.216.069-.22.067-.223.066-.227.063-.23.063-.234.06-.238.06-.242.056-.247.056-.25.054-.255.053-.259.05-.265.05-.269.048-.275.046-.28.045-.286.043-.292.041-.298.04-.305.038-.311.037-.32.035-.327.034-.336.032-.344.03-.355.03-.365.027-.376.025-.389.025-.402.022-.418.021-.434.02-.453.018-.474.016-.499.015-.528.013-.562.012-.604.01-.656.009-.725.007-.82.006-.97.004-1.249.002-2.346.001H28.026l-1.322-.003-1.001-.004-.84-.005-.738-.007-.666-.008-.61-.01-.569-.012-.533-.013-.503-.014-.478-.017-.456-.017-.437-.02-.42-.02-.405-.023-.391-.024-.378-.025-.367-.027-.356-.029-.346-.03-.337-.032-.329-.033-.32-.035-.313-.036-.306-.039-.3-.04-.292-.04-.287-.043-.281-.044-.276-.047-.27-.047-.265-.05-.26-.05-.256-.052-.251-.054-.247-.056-.243-.057-.238-.058-.235-.06-.23-.063-.228-.063-.224-.066-.22-.066-.217-.069-.213-.07-.21-.072-.208-.073-.204-.075-.2-.077-.199-.078-.195-.08-.193-.082-.19-.083-.186-.085-.185-.087-.181-.089-.18-.09-.176-.092-.174-.093-.172-.096-.169-.096-.167-.1-.164-.1-.163-.102-.16-.104-.157-.106-.156-.108-.153-.11-.15-.11-.15-.114-.147-.115-.144-.117-.143-.118-.14-.12-.14-.123-.136-.124-.134-.127-.133-.128-.13-.13-.129-.132-.127-.134-.124-.136-.123-.138-.121-.14-.12-.142-.117-.145-.115-.146-.113-.148-.112-.15-.11-.154-.108-.155-.107-.157-.104-.16-.103-.16-.1-.165-.1-.166-.098-.169-.095-.17-.094-.174-.093-.176-.09-.179-.089-.18-.087-.184-.086-.187-.083-.189-.083-.192-.08-.194-.079-.198-.077-.2-.075-.203-.074-.207-.072-.21-.07-.212-.07-.216-.067-.22-.065-.222-.064-.227-.063-.23-.06-.233-.06-.238-.057-.242-.056-.246-.054-.25-.053-.254-.05-.26-.05-.264-.048-.269-.047-.274-.044-.28-.044-.285-.041-.291-.04-.298-.039-.304-.036-.311-.036-.319-.033-.326-.033-.335-.03-.344-.03-.354-.027-.364-.025-.376-.025-.387-.023-.402-.02-.416-.02-.433-.018-.451-.017-.473-.015-.497-.013-.525-.012-.559-.01-.6-.01-.651-.007-.719-.005-.811-.004-.955L0 34.338 0 32.238v-4.08l.003-1.364.003-1.019.005-.85.007-.744.008-.67.01-.616.012-.571.013-.535.014-.506.016-.48.018-.458.019-.438.02-.422.023-.405.024-.392.025-.38.027-.367.028-.357.03-.347.032-.338.033-.329.035-.321.037-.314.037-.306.04-.3.041-.293.043-.287.044-.282.046-.276.047-.27.05-.266.05-.26.052-.257.054-.251L1 12.64l.057-.243.059-.24.06-.234.062-.232.063-.227.065-.224.067-.22.068-.218.07-.213.072-.21.073-.208.075-.205.077-.2.078-.2.08-.195.081-.192.083-.19.085-.187.087-.185.088-.182.09-.18.092-.176.094-.174.095-.172.097-.17.098-.167.1-.164.103-.163.104-.16.106-.158.107-.155.11-.154.11-.151.114-.15.114-.146.117-.145.119-.143.12-.14.122-.14.124-.136.127-.135.128-.132.13-.131.131-.129.134-.127.136-.125.138-.123.14-.12.142-.12.144-.117.146-.116.148-.114.15-.111.153-.11.155-.109.157-.106.16-.105.16-.103.165-.1.166-.1.168-.098.171-.096.173-.094.176-.092.178-.091.181-.089.184-.087.186-.086.189-.084.191-.082.195-.08.197-.08.2-.077.203-.075.206-.074.21-.073.212-.07.216-.07.219-.066.222-.066.226-.064.23-.063.234-.06.237-.06.241-.057.246-.056.25-.055.254-.053.259-.05.263-.05.269-.049.274-.046.279-.045.285-.043.29-.042.298-.04.303-.039.311-.037.318-.035.326-.034.334-.032.344-.03.352-.03.364-.027.374-.026.387-.025.4-.023.415-.021.431-.02.45-.018.471-.017.495-.015.523-.013.556-.012.596-.01.647-.01.713-.007.802-.006.94-.004L27.55 0 29.485 0h448.63l1.41.002 1.037.004.86.005.752.007.676.008.618.01.575.01.538.013.507.015.482.016.46.017.44.02.423.02.407.022.393.024.38.025.368.027.358.028.348.03.338.032.33.033.322.034.314.037.307.037.3.04.294.04.288.043.281.044.277.046.271.047.266.05.261.05.256.052.252.053.248.056.243.056.239.059.236.06.231.062.228.063.224.065.221.067.217.068.214.07.211.071.208.073.204.075.202.076.198.078.196.08.193.082.19.083.188.085.184.086.182.088.18.09.177.092.174.093.172.095.17.097.167.098.165.1.163.103.16.104.158.105.156.108.153.109.152.11.149.114.147.114.145.117.143.118.141.12.139.122.137.124.135.126.133.128.13.13.129.132.127.134.125.135.124.138.121.14.119.142.118.143.116.146.113.149.112.15.111.152.108.155.107.157.104.159.103.16.102.164.099.166.098.169.096.17.094.173.093.176.091.178.089.18.087.184.086.186.084.189.082.19.081.195.079.197.078.2.075.203.074.206.073.209.07.212.07.215.067.22.066.221.064.226.063.23.061.233.059.237.058.241.056.245.054.25.053.253.052.259.05.263.048.268.046.274.045.278.044.285.041.29.041.297.038.303.038.31.035.318.034.325.032.333.031.343.029.352.028.362.026.374.025.386.023.399.021.413.02.43.019.449.016.469.016.493.013.52.012.553.011.593.009.642.007.707.006.794.005.927.003 1.16.001 1.81V31Z" fill="#1B1B1B" stroke="#383838" stroke-width="2" mask="url(#a)"/></svg>
