<svg width="40" height="40" fill="none" xmlns="http://www.w3.org/2000/svg"><path d="M8.5 6v5H17v23h6V11h8.5V6h-23zm1 1h21v3H22v23h-4V10H9.5V7zM25 12.5a.501.501 0 000 1 .501.501 0 000-1zm0 2a.501.501 0 000 1 .501.501 0 000-1zm0 2a.501.501 0 000 1 .501.501 0 000-1zm0 2a.501.501 0 000 1 .501.501 0 000-1zm0 2a.501.501 0 000 1 .501.501 0 000-1zm0 2a.501.501 0 000 1 .501.501 0 000-1zm0 2a.501.501 0 000 1 .501.501 0 000-1zm0 2a.501.501 0 000 1 .501.501 0 000-1zm0 2a.501.501 0 000 1 .501.501 0 000-1zm0 2a.501.501 0 000 1 .501.501 0 000-1zm0 2a.501.501 0 000 1 .501.501 0 000-1z" fill="#333"/></svg>
