<svg width="58" height="58" fill="none" xmlns="http://www.w3.org/2000/svg"><mask id="b" fill="#fff"><path fill-rule="evenodd" clip-rule="evenodd" d="M58 29v2.9l-.003 1.201-.004.922-.005.776-.006.684-.008.618-.01.569-.01.528-.013.496-.014.469-.015.446-.017.425-.018.407-.02.392-.02.378-.023.364-.024.353-.025.342-.027.333-.029.323-.03.315-.03.306-.033.3-.035.292-.035.285-.038.28-.038.273-.04.268-.042.263-.043.257-.045.252-.046.248-.047.243-.05.239-.05.235-.052.23-.053.227-.056.223-.056.22-.058.215-.06.212-.06.21-.064.205-.064.203-.065.199-.068.197-.068.193-.07.19-.073.189-.073.185-.075.182-.076.18-.079.177-.08.175-.08.172-.084.17-.084.167-.086.165-.088.163-.09.16-.09.159-.093.155-.094.154-.096.152-.097.15-.1.147-.1.145-.103.143-.104.141-.106.14-.108.136-.11.136-.11.133-.113.131-.115.13-.116.127-.118.126-.12.124-.122.122-.124.12-.126.119-.127.116-.13.115-.13.113-.134.111-.135.11-.137.107-.139.107-.14.104-.144.103-.145.1-.147.1-.15.098-.15.096-.154.094-.156.093-.158.09-.16.09-.163.088-.165.086-.167.085-.17.083-.171.081-.175.08-.177.078-.18.077-.182.075-.184.074-.188.072-.19.07-.194.069-.196.067-.2.066-.202.065-.205.062-.209.061-.212.06-.215.058-.22.057-.222.055-.227.054-.23.052-.234.05-.239.05-.242.048-.248.046-.252.045-.257.043-.262.041-.267.04-.273.04-.279.037-.285.036-.292.034-.298.033-.307.031-.314.03-.322.029-.332.027-.341.025-.352.024-.364.023-.376.021-.39.02-.407.018-.424.017-.444.015-.467.014-.493.013-.526.01-.565.01-.613.008-.678.007-.768.005-.907.004-1.169.002-2.195.001h-3.6l-1.237-.003-.937-.003-.785-.005-.69-.007-.623-.007-.572-.01-.531-.01-.499-.013-.47-.013-.448-.016-.427-.016-.409-.018-.392-.02-.379-.02-.366-.023-.354-.024-.343-.025-.333-.027-.324-.028-.315-.03-.307-.031-.3-.033-.293-.034-.286-.035-.28-.038-.274-.038-.268-.04-.263-.042-.258-.042-.252-.045-.248-.046-.244-.047-.24-.05-.234-.05-.231-.052-.227-.053-.223-.055-.22-.056-.216-.059-.213-.059-.209-.06-.206-.063-.203-.065-.2-.065-.196-.067-.194-.069-.19-.07-.189-.072-.185-.073-.183-.075-.18-.076-.177-.078-.175-.08-.173-.081-.17-.083-.167-.084-.165-.086-.163-.088-.16-.089-.159-.09-.156-.093-.154-.094-.152-.096-.15-.097-.147-.1-.145-.1-.144-.102-.141-.105-.14-.105-.137-.108-.135-.11-.133-.11-.132-.113-.13-.115-.127-.116-.126-.118-.124-.12-.122-.121-.12-.124-.12-.126-.116-.127-.115-.129-.113-.13-.111-.134-.11-.135-.108-.137-.106-.139-.105-.14-.103-.143-.1-.145-.1-.147-.098-.15-.096-.15-.095-.154-.092-.156-.092-.157-.09-.16-.087-.163-.086-.164-.085-.167-.083-.17-.082-.172-.08-.174-.078-.177-.077-.179-.075-.182-.074-.185-.072-.187-.07-.19-.07-.194-.067-.196-.066-.198-.064-.203-.063-.205-.062-.208-.06-.212-.058-.215-.057-.219-.055-.222-.054-.226-.052-.23-.05-.234-.05-.238-.048-.243-.046-.247-.045-.252-.043-.256-.042-.262-.04-.267-.04-.272-.037-.279-.036-.284-.034-.291-.033-.298-.032-.306-.03-.313-.028-.322-.028-.331-.025-.34-.024-.352-.023-.362-.022-.376-.02-.39-.018-.404-.017-.422-.015-.443-.014-.465-.013-.49-.01-.524-.01-.561-.009-.61-.006-.672-.006-.759-.004-.893-.002-1.139L0 30.157v-3.816l.002-1.275.004-.953.005-.796.006-.696.008-.628.009-.575.01-.534.013-.501.013-.473.015-.449.017-.428.018-.41.019-.395.02-.38.023-.366.024-.355.025-.344.027-.334.028-.324.03-.316.03-.308.033-.3.034-.294.036-.287.036-.28.039-.274.04-.269.041-.263.043-.258.044-.253.046-.249.048-.244.048-.24.05-.235.052-.23.054-.228.055-.224.056-.22.058-.216.06-.213.06-.21.062-.205.064-.204.066-.2.067-.196.068-.194.07-.192.072-.188.073-.185.075-.183.076-.18.078-.178.08-.175.08-.173.083-.17.084-.168.086-.165.088-.163.089-.161.09-.159.093-.156.094-.154.095-.152.098-.15.098-.147.101-.146.102-.143.104-.142.106-.14.107-.137.11-.135.11-.134.113-.132.114-.13.117-.127.117-.126.12-.124.122-.123.123-.12.125-.119.128-.117.129-.115.13-.113.133-.112.135-.11.137-.107.138-.107.141-.105.143-.102.145-.102.146-.1.15-.097.15-.096.154-.095.155-.093.158-.091.16-.09.162-.088.164-.087.167-.084.169-.084.172-.081.174-.08.176-.079.18-.077.181-.075.185-.074.187-.072.19-.071.193-.07.196-.067.198-.066.202-.064.205-.063.208-.062.212-.06.215-.058.218-.057.222-.056.226-.053.23-.053.234-.05.237-.05.243-.048.246-.047.251-.045.257-.043.26-.042.267-.04.272-.04.278-.037.284-.036.29-.035.298-.033.305-.031.313-.03.321-.03.33-.027.34-.025.35-.025.362-.023.375-.02.388-.02.403-.02.421-.016.44-.016.463-.014.49-.013.52-.011.558-.01.605-.008.666-.007.751-.005.88-.004L25.772 0 27.582 0h3.948l1.318.002.97.003.806.005.703.006.632.008.579.01.537.01.503.012.475.013.451.015.43.016.412.018.395.02.38.02.368.022.356.024.345.025.334.027.326.028.316.029.309.031.3.032.295.034.287.036.28.036.276.039.269.04.263.04.259.044.253.044.25.045.243.048.24.048.236.05.231.052.228.053.224.055.22.056.217.058.213.06.21.06.206.062.204.064.2.065.197.067.194.069.191.07.189.071.186.073.183.075.18.076.178.078.175.08.173.08.17.083.169.084.165.085.163.088.161.089.159.09.156.092.155.094.152.096.15.097.148.098.145.1.144.103.142.104.14.105.137.108.136.109.133.11.132.113.13.114.128.116.126.118.125.12.122.121.12.123.12.125.116.127.116.13.113.13.112.133.11.134.108.137.106.138.105.14.103.143.102.145.1.147.097.148.097.151.095.153.093.156.091.157.09.16.088.162.087.164.085.166.083.17.082.17.08.175.079.176.077.18.075.18.074.185.073.187.07.19.07.192.067.196.067.198.064.202.063.205.062.208.06.211.059.215.057.218.055.222.054.225.053.23.05.233.05.237.048.242.047.246.045.251.043.256.043.26.04.267.04.271.037.278.036.283.035.29.033.298.032.304.03.312.029.32.027.33.026.339.025.35.023.36.021.373.02.387.019.402.017.42.016.439.014.46.013.488.011.517.01.555.009.6.007.661.005.744.004.866L58 25.67v1.693L58 29Z"/></mask><path fill-rule="evenodd" clip-rule="evenodd" d="M58 29v2.9l-.003 1.201-.004.922-.005.776-.006.684-.008.618-.01.569-.01.528-.013.496-.014.469-.015.446-.017.425-.018.407-.02.392-.02.378-.023.364-.024.353-.025.342-.027.333-.029.323-.03.315-.03.306-.033.3-.035.292-.035.285-.038.28-.038.273-.04.268-.042.263-.043.257-.045.252-.046.248-.047.243-.05.239-.05.235-.052.23-.053.227-.056.223-.056.22-.058.215-.06.212-.06.21-.064.205-.064.203-.065.199-.068.197-.068.193-.07.19-.073.189-.073.185-.075.182-.076.18-.079.177-.08.175-.08.172-.084.17-.084.167-.086.165-.088.163-.09.16-.09.159-.093.155-.094.154-.096.152-.097.15-.1.147-.1.145-.103.143-.104.141-.106.14-.108.136-.11.136-.11.133-.113.131-.115.13-.116.127-.118.126-.12.124-.122.122-.124.12-.126.119-.127.116-.13.115-.13.113-.134.111-.135.11-.137.107-.139.107-.14.104-.144.103-.145.1-.147.1-.15.098-.15.096-.154.094-.156.093-.158.09-.16.09-.163.088-.165.086-.167.085-.17.083-.171.081-.175.08-.177.078-.18.077-.182.075-.184.074-.188.072-.19.07-.194.069-.196.067-.2.066-.202.065-.205.062-.209.061-.212.06-.215.058-.22.057-.222.055-.227.054-.23.052-.234.05-.239.05-.242.048-.248.046-.252.045-.257.043-.262.041-.267.04-.273.04-.279.037-.285.036-.292.034-.298.033-.307.031-.314.03-.322.029-.332.027-.341.025-.352.024-.364.023-.376.021-.39.02-.407.018-.424.017-.444.015-.467.014-.493.013-.526.01-.565.01-.613.008-.678.007-.768.005-.907.004-1.169.002-2.195.001h-3.6l-1.237-.003-.937-.003-.785-.005-.69-.007-.623-.007-.572-.01-.531-.01-.499-.013-.47-.013-.448-.016-.427-.016-.409-.018-.392-.02-.379-.02-.366-.023-.354-.024-.343-.025-.333-.027-.324-.028-.315-.03-.307-.031-.3-.033-.293-.034-.286-.035-.28-.038-.274-.038-.268-.04-.263-.042-.258-.042-.252-.045-.248-.046-.244-.047-.24-.05-.234-.05-.231-.052-.227-.053-.223-.055-.22-.056-.216-.059-.213-.059-.209-.06-.206-.063-.203-.065-.2-.065-.196-.067-.194-.069-.19-.07-.189-.072-.185-.073-.183-.075-.18-.076-.177-.078-.175-.08-.173-.081-.17-.083-.167-.084-.165-.086-.163-.088-.16-.089-.159-.09-.156-.093-.154-.094-.152-.096-.15-.097-.147-.1-.145-.1-.144-.102-.141-.105-.14-.105-.137-.108-.135-.11-.133-.11-.132-.113-.13-.115-.127-.116-.126-.118-.124-.12-.122-.121-.12-.124-.12-.126-.116-.127-.115-.129-.113-.13-.111-.134-.11-.135-.108-.137-.106-.139-.105-.14-.103-.143-.1-.145-.1-.147-.098-.15-.096-.15-.095-.154-.092-.156-.092-.157-.09-.16-.087-.163-.086-.164-.085-.167-.083-.17-.082-.172-.08-.174-.078-.177-.077-.179-.075-.182-.074-.185-.072-.187-.07-.19-.07-.194-.067-.196-.066-.198-.064-.203-.063-.205-.062-.208-.06-.212-.058-.215-.057-.219-.055-.222-.054-.226-.052-.23-.05-.234-.05-.238-.048-.243-.046-.247-.045-.252-.043-.256-.042-.262-.04-.267-.04-.272-.037-.279-.036-.284-.034-.291-.033-.298-.032-.306-.03-.313-.028-.322-.028-.331-.025-.34-.024-.352-.023-.362-.022-.376-.02-.39-.018-.404-.017-.422-.015-.443-.014-.465-.013-.49-.01-.524-.01-.561-.009-.61-.006-.672-.006-.759-.004-.893-.002-1.139L0 30.157v-3.816l.002-1.275.004-.953.005-.796.006-.696.008-.628.009-.575.01-.534.013-.501.013-.473.015-.449.017-.428.018-.41.019-.395.02-.38.023-.366.024-.355.025-.344.027-.334.028-.324.03-.316.03-.308.033-.3.034-.294.036-.287.036-.28.039-.274.04-.269.041-.263.043-.258.044-.253.046-.249.048-.244.048-.24.05-.235.052-.23.054-.228.055-.224.056-.22.058-.216.06-.213.06-.21.062-.205.064-.204.066-.2.067-.196.068-.194.07-.192.072-.188.073-.185.075-.183.076-.18.078-.178.08-.175.08-.173.083-.17.084-.168.086-.165.088-.163.089-.161.09-.159.093-.156.094-.154.095-.152.098-.15.098-.147.101-.146.102-.143.104-.142.106-.14.107-.137.11-.135.11-.134.113-.132.114-.13.117-.127.117-.126.12-.124.122-.123.123-.12.125-.119.128-.117.129-.115.13-.113.133-.112.135-.11.137-.107.138-.107.141-.105.143-.102.145-.102.146-.1.15-.097.15-.096.154-.095.155-.093.158-.091.16-.09.162-.088.164-.087.167-.084.169-.084.172-.081.174-.08.176-.079.18-.077.181-.075.185-.074.187-.072.19-.071.193-.07.196-.067.198-.066.202-.064.205-.063.208-.062.212-.06.215-.058.218-.057.222-.056.226-.053.23-.053.234-.05.237-.05.243-.048.246-.047.251-.045.257-.043.26-.042.267-.04.272-.04.278-.037.284-.036.29-.035.298-.033.305-.031.313-.03.321-.03.33-.027.34-.025.35-.025.362-.023.375-.02.388-.02.403-.02.421-.016.44-.016.463-.014.49-.013.52-.011.558-.01.605-.008.666-.007.751-.005.88-.004L25.772 0 27.582 0h3.948l1.318.002.97.003.806.005.703.006.632.008.579.01.537.01.503.012.475.013.451.015.43.016.412.018.395.02.38.02.368.022.356.024.345.025.334.027.326.028.316.029.309.031.3.032.295.034.287.036.28.036.276.039.269.04.263.04.259.044.253.044.25.045.243.048.24.048.236.05.231.052.228.053.224.055.22.056.217.058.213.06.21.06.206.062.204.064.2.065.197.067.194.069.191.07.189.071.186.073.183.075.18.076.178.078.175.08.173.08.17.083.169.084.165.085.163.088.161.089.159.09.156.092.155.094.152.096.15.097.148.098.145.1.144.103.142.104.14.105.137.108.136.109.133.11.132.113.13.114.128.116.126.118.125.12.122.121.12.123.12.125.116.127.116.13.113.13.112.133.11.134.108.137.106.138.105.14.103.143.102.145.1.147.097.148.097.151.095.153.093.156.091.157.09.16.088.162.087.164.085.166.083.17.082.17.08.175.079.176.077.18.075.18.074.185.073.187.07.19.07.192.067.196.067.198.064.202.063.205.062.208.06.211.059.215.057.218.055.222.054.225.053.23.05.233.05.237.048.242.047.246.045.251.043.256.043.26.04.267.04.271.037.278.036.283.035.29.033.298.032.304.03.312.029.32.027.33.026.339.025.35.023.36.021.373.02.387.019.402.017.42.016.439.014.46.013.488.011.517.01.555.009.6.007.661.005.744.004.866L58 25.67v1.693L58 29Z" fill="#C4C4C4" stroke="url(#a)" stroke-width="4" mask="url(#b)"/><path d="M13.205 22.3h2.1V37h-2.1V22.3ZM23.99 37.168a10.35 10.35 0 0 1-3.213-.504c-1.022-.35-1.827-.798-2.415-1.344l.777-1.638c.56.504 1.274.917 2.142 1.239a8.161 8.161 0 0 0 2.709.462c1.218 0 2.128-.203 2.73-.609.602-.42.903-.973.903-1.659 0-.504-.168-.91-.504-1.218a3.123 3.123 0 0 0-1.218-.735c-.476-.168-1.155-.357-2.037-.567-1.106-.266-2.002-.532-2.688-.798a4.578 4.578 0 0 1-1.743-1.218c-.476-.56-.714-1.309-.714-2.247 0-.784.203-1.491.609-2.121.42-.63 1.05-1.134 1.89-1.512.84-.378 1.883-.567 3.129-.567.868 0 1.722.112 2.562.336.84.224 1.561.546 2.163.966l-.693 1.68a7.348 7.348 0 0 0-1.974-.882 7.14 7.14 0 0 0-2.058-.315c-1.19 0-2.086.217-2.688.651-.588.434-.882.994-.882 1.68 0 .504.168.917.504 1.239.336.308.749.553 1.239.735.504.168 1.183.35 2.037.546 1.106.266 1.995.532 2.667.798a4.403 4.403 0 0 1 1.722 1.218c.49.546.735 1.281.735 2.205 0 .77-.21 1.477-.63 2.121-.42.63-1.057 1.134-1.911 1.512-.854.364-1.904.546-3.15.546Zm18.944-7.602h2.016v5.733a7.826 7.826 0 0 1-2.541 1.386 9.5 9.5 0 0 1-3.024.483c-1.484 0-2.821-.322-4.011-.966a7.42 7.42 0 0 1-2.814-2.688c-.672-1.148-1.008-2.436-1.008-3.864s.336-2.716 1.008-3.864a7.218 7.218 0 0 1 2.814-2.688c1.204-.644 2.555-.966 4.053-.966 1.176 0 2.24.196 3.192.588a6.418 6.418 0 0 1 2.457 1.68l-1.302 1.302c-1.176-1.134-2.597-1.701-4.263-1.701-1.12 0-2.128.245-3.024.735a5.236 5.236 0 0 0-2.08 2.016c-.503.854-.755 1.82-.755 2.898 0 1.064.252 2.03.756 2.898a5.428 5.428 0 0 0 2.079 2.016c.896.49 1.897.735 3.003.735 1.316 0 2.464-.315 3.444-.945v-4.788Z" fill="#000"/><defs><linearGradient id="a" x1="0" y1="4.21" x2="58" y2="52.855" gradientUnits="userSpaceOnUse"><stop stop-color="#A7A7A7"/><stop offset="1" stop-color="#404040"/></linearGradient></defs></svg>
