<svg width="396" height="79" viewBox="0 0 396 79" fill="none" xmlns="http://www.w3.org/2000/svg">
    <mask id="path-1-inside-1_809:687" fill="white">
        <path fill-rule="evenodd" clip-rule="evenodd" d="M396 39.5L395.999 43.4499L395.996 45.0859L395.991 46.3411L395.984 47.3989L395.975 48.3306L395.964 49.1726L395.952 49.9464L395.937 50.6663L395.92 51.342L395.901 51.9806L395.881 52.5874L395.858 53.1668L395.833 53.7219L395.806 54.2554L395.778 54.7696L395.747 55.2663L395.714 55.747L395.68 56.2132L395.643 56.6659L395.604 57.1061L395.564 57.5347L395.521 57.9524L395.477 58.36L395.43 58.7581L395.381 59.1472L395.331 59.5277L395.278 59.9002L395.224 60.265L395.167 60.6224L395.108 60.9729L395.047 61.3167L394.985 61.6541L394.92 61.9853L394.853 62.3106L394.784 62.6302L394.714 62.9443L394.641 63.2531L394.566 63.5568L394.489 63.8555L394.41 64.1493L394.328 64.4385L394.245 64.7232L394.16 65.0034L394.073 65.2793L393.983 65.551L393.892 65.8186L393.798 66.0822L393.702 66.342L393.604 66.5979L393.504 66.85L393.402 67.0985L393.298 67.3434L393.192 67.5848L393.083 67.8228L392.973 68.0574L392.86 68.2886L392.745 68.5166L392.628 68.7413L392.508 68.9629L392.387 69.1814L392.263 69.3968L392.137 69.6091L392.008 69.8185L391.878 70.025L391.745 70.2285L391.61 70.4292L391.473 70.6271L391.333 70.8221L391.191 71.0144L391.047 71.2039L390.9 71.3908L390.751 71.575L390.6 71.7565L390.446 71.9354L390.29 72.1118L390.132 72.2855L389.971 72.4567L389.807 72.6254L389.641 72.7916L389.473 72.9553L389.302 73.1165L389.129 73.2753L388.953 73.4317L388.774 73.5856L388.593 73.7372L388.409 73.8864L388.222 74.0332L388.033 74.1777L387.841 74.3199L387.646 74.4598L387.449 74.5973L387.248 74.7326L387.045 74.8656L386.839 74.9964L386.63 75.1249L386.418 75.2511L386.203 75.3752L385.985 75.497L385.764 75.6166L385.539 75.734L385.311 75.8493L385.081 75.9623L384.846 76.0732L384.609 76.182L384.368 76.2885L384.123 76.393L383.875 76.4953L383.623 76.5955L383.368 76.6935L383.109 76.7895L382.845 76.8833L382.578 76.9751L382.307 77.0647L382.032 77.1523L381.752 77.2378L381.468 77.3212L381.179 77.4025L380.886 77.4818L380.587 77.559L380.284 77.6342L379.976 77.7073L379.662 77.7783L379.343 77.8473L379.019 77.9143L378.688 77.9793L378.351 78.0422L378.008 78.1031L377.659 78.1619L377.302 78.2188L376.938 78.2736L376.566 78.3264L376.186 78.3772L375.798 78.426L375.401 78.4728L374.994 78.5176L374.578 78.5604L374.15 78.6012L373.711 78.64L373.26 78.6768L372.795 78.7116L372.315 78.7444L371.82 78.7752L371.308 78.8041L370.776 78.8309L370.223 78.8558L369.646 78.8787L369.042 78.8996L368.406 78.9186L367.734 78.9355L367.018 78.9505L366.249 78.9635L365.414 78.9745L364.491 78.9836L363.445 78.9906L362.211 78.9957L360.62 78.9989L357.631 79L35.6951 78.9992L34.0117 78.9963L32.7361 78.9916L31.6663 78.9848L30.7266 78.9761L29.8788 78.9654L29.1004 78.9527L28.377 78.938L27.6984 78.9214L27.0573 78.9028L26.4484 78.8822L25.8672 78.8596L25.3106 78.835L24.7756 78.8085L24.2602 78.7799L23.7624 78.7494L23.2806 78.7169L22.8135 78.6824L22.36 78.6459L21.9191 78.6075L21.4897 78.567L21.0713 78.5245L20.6631 78.4801L20.2645 78.4336L19.8749 78.3851L19.4938 78.3346L19.1209 78.2821L18.7557 78.2276L18.3978 78.1711L18.0469 78.1125L17.7028 78.052L17.3651 77.9894L17.0335 77.9248L16.7079 77.8581L16.3879 77.7894L16.0735 77.7187L15.7645 77.6459L15.4605 77.5711L15.1616 77.4942L14.8674 77.4153L14.578 77.3343L14.2931 77.2512L14.0127 77.166L13.7366 77.0788L13.4646 76.9895L13.1968 76.8981L12.933 76.8046L12.6731 76.7089L12.417 76.6112L12.1646 76.5114L11.916 76.4094L11.6709 76.3053L11.4293 76.1991L11.1912 76.0907L10.9564 75.9801L10.725 75.8674L10.4969 75.7525L10.272 75.6355L10.0503 75.5162L9.83165 75.3947L9.6161 75.271L9.40358 75.1451L9.19404 75.017L8.98745 74.8866L8.78376 74.754L8.58294 74.619L8.38495 74.4818L8.18976 74.3423L7.99734 74.2005L7.80765 74.0564L7.62066 73.9099L7.43634 73.7611L7.25468 73.6099L7.07563 73.4563L6.89918 73.3003L6.7253 73.142L6.55397 72.9811L6.38516 72.8178L6.21886 72.652L6.05504 72.4838L5.89368 72.3129L5.73476 72.1396L5.57827 71.9637L5.42419 71.7852L5.27249 71.6041L5.12317 71.4203L4.9762 71.2339L4.83157 71.0448L4.68928 70.8529L4.54929 70.6583L4.4116 70.4609L4.2762 70.2607L4.14307 70.0576L4.0122 69.8516L3.88358 69.6427L3.75719 69.4308L3.63303 69.2159L3.51109 68.9979L3.39135 68.7768L3.2738 68.5526L3.15844 68.3251L3.04525 68.0944L2.93423 67.8604L2.82537 67.623L2.71866 67.3821L2.6141 67.1378L2.51166 66.8898L2.41135 66.6383L2.31316 66.383L2.21709 66.1239L2.12312 65.8609L2.03125 65.5939L1.94147 65.3228L1.85377 65.0476L1.76816 64.7681L1.68463 64.4842L1.60316 64.1957L1.52376 63.9026L1.44642 63.6047L1.37113 63.3018L1.2979 62.9938L1.22671 62.6806L1.15756 62.3619L1.09045 62.0375L1.02537 61.7072L0.962324 61.3708L0.901302 61.0281L0.842302 60.6787L0.785322 60.3224L0.730357 59.9588L0.677405 59.5876L0.626463 59.2083L0.577528 58.8207L0.530597 58.4241L0.485668 58.018L0.442738 57.6019L0.401806 57.1751L0.362868 56.7368L0.325923 56.2862L0.290969 55.8222L0.258004 55.3439L0.227027 54.8498L0.198035 54.3385L0.171027 53.8082L0.146002 53.2567L0.122959 52.6815L0.101895 52.0792L0.0828117 51.446L0.0657063 50.7767L0.0505783 50.0644L0.0374271 49.2999L0.0262518 48.47L0.0170521 47.5546L0.00982731 46.5203L0.00457721 45.3041L0.00130149 43.7529L0 41.0763L0.000672663 35.8782L0.00331952 34.141L0.00794069 32.8429L0.0145364 31.7598L0.023107 30.811L0.033653 29.9565L0.0461747 29.1728L0.060673 28.4451L0.0771484 27.7629L0.0956019 27.1188L0.116034 26.5072L0.138447 25.9237L0.16284 25.365L0.189217 24.8282L0.217576 24.311L0.247921 23.8117L0.280253 23.3285L0.314573 22.8601L0.350884 22.4053L0.389187 21.9632L0.429483 21.5328L0.471777 21.1134L0.516069 20.7042L0.562362 20.3046L0.610658 19.9142L0.66096 19.5323L0.713272 19.1586L0.767595 18.7926L0.823933 18.434L0.882289 18.0824L0.942667 17.7376L1.00507 17.3992L1.0695 17.067L1.13596 16.7408L1.20446 16.4203L1.275 16.1053L1.34758 15.7957L1.42222 15.4912L1.4989 15.1917L1.57765 14.8971L1.65845 14.6072L1.74133 14.3218L1.82628 14.0409L1.91331 13.7643L2.00242 13.4919L2.09363 13.2237L2.18693 12.9594L2.28233 12.6991L2.37985 12.4426L2.47948 12.1898L2.58124 11.9408L2.68512 11.6953L2.79115 11.4533L2.89933 11.2148L3.00966 10.9797L3.12215 10.748L3.23682 10.5195L3.35367 10.2942L3.47271 10.0721L3.59395 9.85317L3.7174 9.63729L3.84308 9.42444L3.97098 9.21458L4.10114 9.00766L4.23355 8.80365L4.36822 8.60252L4.50518 8.40422L4.64444 8.20872L4.786 8.016L4.92988 7.82601L5.0761 7.63872L5.22467 7.45412L5.37561 7.27216L5.52893 7.09283L5.68465 6.9161L5.8428 6.74194L6.00337 6.57033L6.16641 6.40125L6.33192 6.23468L6.49993 6.07059L6.67045 5.90896L6.84352 5.74978L7.01915 5.59303L7.19736 5.43869L7.37819 5.28674L7.56166 5.13716L7.74779 4.98994L7.93662 4.84507L8.12817 4.70252L8.32248 4.56229L8.51957 4.42436L8.71949 4.28872L8.92226 4.15535L9.12792 4.02425L9.33651 3.89539L9.54808 3.76877L9.76266 3.64438L9.98029 3.52221L10.201 3.40224L10.4249 3.28447L10.652 3.16888L10.8824 3.05548L11.116 2.94424L11.3531 2.83516L11.5935 2.72823L11.8375 2.62345L12.085 2.5208L12.3362 2.42028L12.5911 2.32188L12.8498 2.22559L13.1123 2.13141L13.3789 2.03933L13.6495 1.94935L13.9243 1.86145L14.2033 1.77564L14.4868 1.6919L14.7747 1.61024L15.0674 1.53064L15.3648 1.4531L15.6671 1.37762L15.9745 1.30419L16.2872 1.2328L16.6053 1.16346L16.9291 1.09616L17.2588 1.03089L17.5945 0.967656L17.9366 0.906447L18.2853 0.847261L18.6409 0.790095L19.0037 0.734946L19.3742 0.681811L19.7526 0.630686L20.1394 0.581571L20.5351 0.53446L20.9402 0.489352L21.3553 0.446245L21.7811 0.405135L22.2182 0.366022L22.6677 0.328902L23.1303 0.293775L23.6072 0.260637L24.0998 0.229488L24.6094 0.200325L25.1379 0.173148L25.6874 0.147955L26.2604 0.124743L26.8601 0.103514L27.4904 0.0842638L28.1564 0.0669936L28.8646 0.0517013L29.6242 0.0383871L30.4479 0.0270496L31.3552 0.0176886L32.3778 0.0103034L33.5754 0.00489378L35.0883 0.00145911L37.5531 0L359.962 0.000515678L361.757 0.00300639L363.077 0.00747227L364.173 0.0139135L365.131 0.0223305L365.991 0.0327236L366.78 0.0450934L367.511 0.0594404L368.196 0.0757654L368.843 0.0940693L369.457 0.114353L370.042 0.136617L370.602 0.160864L371.141 0.187093L371.659 0.215307L372.159 0.245507L372.644 0.277694L373.113 0.311871L373.569 0.348039L374.011 0.386199L374.443 0.426354L374.863 0.468507L375.273 0.512659L375.673 0.558812L376.064 0.60697L376.446 0.657134L376.82 0.709308L377.187 0.763494L377.546 0.819696L377.898 0.877917L378.243 0.938159L378.582 1.00043L378.914 1.06472L379.241 1.13105L379.562 1.19942L379.877 1.26983L380.187 1.34228L380.491 1.41678L380.791 1.49334L381.086 1.57195L381.376 1.65263L381.662 1.73537L381.943 1.82019L382.22 1.90709L382.492 1.99608L382.761 2.08716L383.025 2.18033L383.286 2.27561L383.542 2.373L383.795 2.47251L384.045 2.57414L384.29 2.6779L384.532 2.7838L384.771 2.89185L385.006 3.00206L385.238 3.11443L385.467 3.22897L385.692 3.3457L385.915 3.46461L386.134 3.58573L386.35 3.70906L386.563 3.83461L386.773 3.9624L386.98 4.09243L387.184 4.22471L387.385 4.35927L387.584 4.49611L387.779 4.63524L387.972 4.77667L388.162 4.92043L388.35 5.06653L388.534 5.21497L388.717 5.36579L388.896 5.51899L389.073 5.67459L389.247 5.8326L389.419 5.99306L389.588 6.15597L389.755 6.32135L389.919 6.48923L390.081 6.65963L390.24 6.83257L390.397 7.00807L390.551 7.18615L390.704 7.36685L390.853 7.55018L391.001 7.73618L391.146 7.92488L391.288 8.1163L391.429 8.31047L391.567 8.50742L391.702 8.70719L391.836 8.90982L391.967 9.11535L392.096 9.3238L392.223 9.53521L392.347 9.74964L392.47 9.96713L392.59 10.1877L392.708 10.4115L392.823 10.6384L392.937 10.8686L393.048 11.1021L393.157 11.3389L393.264 11.5792L393.369 11.823L393.472 12.0704L393.573 12.3214L393.671 12.5761L393.768 12.8346L393.862 13.0969L393.954 13.3633L394.044 13.6337L394.132 13.9082L394.218 14.1871L394.302 14.4703L394.384 14.758L394.464 15.0504L394.541 15.3475L394.617 15.6496L394.691 15.9567L394.762 16.2691L394.832 16.5869L394.899 16.9104L394.964 17.2397L395.028 17.5751L395.089 17.9168L395.148 18.2652L395.206 18.6203L395.261 18.9828L395.314 19.3527L395.366 19.7307L395.415 20.1169L395.462 20.5121L395.507 20.9166L395.551 21.3311L395.592 21.7561L395.631 22.1926L395.668 22.6412L395.704 23.1029L395.737 23.5789L395.768 24.0703L395.797 24.5788L395.825 25.1059L395.85 25.6539L395.873 26.2252L395.895 26.8228L395.914 27.4508L395.932 28.114L395.947 28.8189L395.961 29.5743L395.972 30.3926L395.982 31.2927L395.989 32.305L395.995 33.4857L395.998 34.9644L396 37.2707L396 39.5Z"/>
    </mask>
    <path fill-rule="evenodd" clip-rule="evenodd" d="M396 39.5L395.999 43.4499L395.996 45.0859L395.991 46.3411L395.984 47.3989L395.975 48.3306L395.964 49.1726L395.952 49.9464L395.937 50.6663L395.92 51.342L395.901 51.9806L395.881 52.5874L395.858 53.1668L395.833 53.7219L395.806 54.2554L395.778 54.7696L395.747 55.2663L395.714 55.747L395.68 56.2132L395.643 56.6659L395.604 57.1061L395.564 57.5347L395.521 57.9524L395.477 58.36L395.43 58.7581L395.381 59.1472L395.331 59.5277L395.278 59.9002L395.224 60.265L395.167 60.6224L395.108 60.9729L395.047 61.3167L394.985 61.6541L394.92 61.9853L394.853 62.3106L394.784 62.6302L394.714 62.9443L394.641 63.2531L394.566 63.5568L394.489 63.8555L394.41 64.1493L394.328 64.4385L394.245 64.7232L394.16 65.0034L394.073 65.2793L393.983 65.551L393.892 65.8186L393.798 66.0822L393.702 66.342L393.604 66.5979L393.504 66.85L393.402 67.0985L393.298 67.3434L393.192 67.5848L393.083 67.8228L392.973 68.0574L392.86 68.2886L392.745 68.5166L392.628 68.7413L392.508 68.9629L392.387 69.1814L392.263 69.3968L392.137 69.6091L392.008 69.8185L391.878 70.025L391.745 70.2285L391.61 70.4292L391.473 70.6271L391.333 70.8221L391.191 71.0144L391.047 71.2039L390.9 71.3908L390.751 71.575L390.6 71.7565L390.446 71.9354L390.29 72.1118L390.132 72.2855L389.971 72.4567L389.807 72.6254L389.641 72.7916L389.473 72.9553L389.302 73.1165L389.129 73.2753L388.953 73.4317L388.774 73.5856L388.593 73.7372L388.409 73.8864L388.222 74.0332L388.033 74.1777L387.841 74.3199L387.646 74.4598L387.449 74.5973L387.248 74.7326L387.045 74.8656L386.839 74.9964L386.63 75.1249L386.418 75.2511L386.203 75.3752L385.985 75.497L385.764 75.6166L385.539 75.734L385.311 75.8493L385.081 75.9623L384.846 76.0732L384.609 76.182L384.368 76.2885L384.123 76.393L383.875 76.4953L383.623 76.5955L383.368 76.6935L383.109 76.7895L382.845 76.8833L382.578 76.9751L382.307 77.0647L382.032 77.1523L381.752 77.2378L381.468 77.3212L381.179 77.4025L380.886 77.4818L380.587 77.559L380.284 77.6342L379.976 77.7073L379.662 77.7783L379.343 77.8473L379.019 77.9143L378.688 77.9793L378.351 78.0422L378.008 78.1031L377.659 78.1619L377.302 78.2188L376.938 78.2736L376.566 78.3264L376.186 78.3772L375.798 78.426L375.401 78.4728L374.994 78.5176L374.578 78.5604L374.15 78.6012L373.711 78.64L373.26 78.6768L372.795 78.7116L372.315 78.7444L371.82 78.7752L371.308 78.8041L370.776 78.8309L370.223 78.8558L369.646 78.8787L369.042 78.8996L368.406 78.9186L367.734 78.9355L367.018 78.9505L366.249 78.9635L365.414 78.9745L364.491 78.9836L363.445 78.9906L362.211 78.9957L360.62 78.9989L357.631 79L35.6951 78.9992L34.0117 78.9963L32.7361 78.9916L31.6663 78.9848L30.7266 78.9761L29.8788 78.9654L29.1004 78.9527L28.377 78.938L27.6984 78.9214L27.0573 78.9028L26.4484 78.8822L25.8672 78.8596L25.3106 78.835L24.7756 78.8085L24.2602 78.7799L23.7624 78.7494L23.2806 78.7169L22.8135 78.6824L22.36 78.6459L21.9191 78.6075L21.4897 78.567L21.0713 78.5245L20.6631 78.4801L20.2645 78.4336L19.8749 78.3851L19.4938 78.3346L19.1209 78.2821L18.7557 78.2276L18.3978 78.1711L18.0469 78.1125L17.7028 78.052L17.3651 77.9894L17.0335 77.9248L16.7079 77.8581L16.3879 77.7894L16.0735 77.7187L15.7645 77.6459L15.4605 77.5711L15.1616 77.4942L14.8674 77.4153L14.578 77.3343L14.2931 77.2512L14.0127 77.166L13.7366 77.0788L13.4646 76.9895L13.1968 76.8981L12.933 76.8046L12.6731 76.7089L12.417 76.6112L12.1646 76.5114L11.916 76.4094L11.6709 76.3053L11.4293 76.1991L11.1912 76.0907L10.9564 75.9801L10.725 75.8674L10.4969 75.7525L10.272 75.6355L10.0503 75.5162L9.83165 75.3947L9.6161 75.271L9.40358 75.1451L9.19404 75.017L8.98745 74.8866L8.78376 74.754L8.58294 74.619L8.38495 74.4818L8.18976 74.3423L7.99734 74.2005L7.80765 74.0564L7.62066 73.9099L7.43634 73.7611L7.25468 73.6099L7.07563 73.4563L6.89918 73.3003L6.7253 73.142L6.55397 72.9811L6.38516 72.8178L6.21886 72.652L6.05504 72.4838L5.89368 72.3129L5.73476 72.1396L5.57827 71.9637L5.42419 71.7852L5.27249 71.6041L5.12317 71.4203L4.9762 71.2339L4.83157 71.0448L4.68928 70.8529L4.54929 70.6583L4.4116 70.4609L4.2762 70.2607L4.14307 70.0576L4.0122 69.8516L3.88358 69.6427L3.75719 69.4308L3.63303 69.2159L3.51109 68.9979L3.39135 68.7768L3.2738 68.5526L3.15844 68.3251L3.04525 68.0944L2.93423 67.8604L2.82537 67.623L2.71866 67.3821L2.6141 67.1378L2.51166 66.8898L2.41135 66.6383L2.31316 66.383L2.21709 66.1239L2.12312 65.8609L2.03125 65.5939L1.94147 65.3228L1.85377 65.0476L1.76816 64.7681L1.68463 64.4842L1.60316 64.1957L1.52376 63.9026L1.44642 63.6047L1.37113 63.3018L1.2979 62.9938L1.22671 62.6806L1.15756 62.3619L1.09045 62.0375L1.02537 61.7072L0.962324 61.3708L0.901302 61.0281L0.842302 60.6787L0.785322 60.3224L0.730357 59.9588L0.677405 59.5876L0.626463 59.2083L0.577528 58.8207L0.530597 58.4241L0.485668 58.018L0.442738 57.6019L0.401806 57.1751L0.362868 56.7368L0.325923 56.2862L0.290969 55.8222L0.258004 55.3439L0.227027 54.8498L0.198035 54.3385L0.171027 53.8082L0.146002 53.2567L0.122959 52.6815L0.101895 52.0792L0.0828117 51.446L0.0657063 50.7767L0.0505783 50.0644L0.0374271 49.2999L0.0262518 48.47L0.0170521 47.5546L0.00982731 46.5203L0.00457721 45.3041L0.00130149 43.7529L0 41.0763L0.000672663 35.8782L0.00331952 34.141L0.00794069 32.8429L0.0145364 31.7598L0.023107 30.811L0.033653 29.9565L0.0461747 29.1728L0.060673 28.4451L0.0771484 27.7629L0.0956019 27.1188L0.116034 26.5072L0.138447 25.9237L0.16284 25.365L0.189217 24.8282L0.217576 24.311L0.247921 23.8117L0.280253 23.3285L0.314573 22.8601L0.350884 22.4053L0.389187 21.9632L0.429483 21.5328L0.471777 21.1134L0.516069 20.7042L0.562362 20.3046L0.610658 19.9142L0.66096 19.5323L0.713272 19.1586L0.767595 18.7926L0.823933 18.434L0.882289 18.0824L0.942667 17.7376L1.00507 17.3992L1.0695 17.067L1.13596 16.7408L1.20446 16.4203L1.275 16.1053L1.34758 15.7957L1.42222 15.4912L1.4989 15.1917L1.57765 14.8971L1.65845 14.6072L1.74133 14.3218L1.82628 14.0409L1.91331 13.7643L2.00242 13.4919L2.09363 13.2237L2.18693 12.9594L2.28233 12.6991L2.37985 12.4426L2.47948 12.1898L2.58124 11.9408L2.68512 11.6953L2.79115 11.4533L2.89933 11.2148L3.00966 10.9797L3.12215 10.748L3.23682 10.5195L3.35367 10.2942L3.47271 10.0721L3.59395 9.85317L3.7174 9.63729L3.84308 9.42444L3.97098 9.21458L4.10114 9.00766L4.23355 8.80365L4.36822 8.60252L4.50518 8.40422L4.64444 8.20872L4.786 8.016L4.92988 7.82601L5.0761 7.63872L5.22467 7.45412L5.37561 7.27216L5.52893 7.09283L5.68465 6.9161L5.8428 6.74194L6.00337 6.57033L6.16641 6.40125L6.33192 6.23468L6.49993 6.07059L6.67045 5.90896L6.84352 5.74978L7.01915 5.59303L7.19736 5.43869L7.37819 5.28674L7.56166 5.13716L7.74779 4.98994L7.93662 4.84507L8.12817 4.70252L8.32248 4.56229L8.51957 4.42436L8.71949 4.28872L8.92226 4.15535L9.12792 4.02425L9.33651 3.89539L9.54808 3.76877L9.76266 3.64438L9.98029 3.52221L10.201 3.40224L10.4249 3.28447L10.652 3.16888L10.8824 3.05548L11.116 2.94424L11.3531 2.83516L11.5935 2.72823L11.8375 2.62345L12.085 2.5208L12.3362 2.42028L12.5911 2.32188L12.8498 2.22559L13.1123 2.13141L13.3789 2.03933L13.6495 1.94935L13.9243 1.86145L14.2033 1.77564L14.4868 1.6919L14.7747 1.61024L15.0674 1.53064L15.3648 1.4531L15.6671 1.37762L15.9745 1.30419L16.2872 1.2328L16.6053 1.16346L16.9291 1.09616L17.2588 1.03089L17.5945 0.967656L17.9366 0.906447L18.2853 0.847261L18.6409 0.790095L19.0037 0.734946L19.3742 0.681811L19.7526 0.630686L20.1394 0.581571L20.5351 0.53446L20.9402 0.489352L21.3553 0.446245L21.7811 0.405135L22.2182 0.366022L22.6677 0.328902L23.1303 0.293775L23.6072 0.260637L24.0998 0.229488L24.6094 0.200325L25.1379 0.173148L25.6874 0.147955L26.2604 0.124743L26.8601 0.103514L27.4904 0.0842638L28.1564 0.0669936L28.8646 0.0517013L29.6242 0.0383871L30.4479 0.0270496L31.3552 0.0176886L32.3778 0.0103034L33.5754 0.00489378L35.0883 0.00145911L37.5531 0L359.962 0.000515678L361.757 0.00300639L363.077 0.00747227L364.173 0.0139135L365.131 0.0223305L365.991 0.0327236L366.78 0.0450934L367.511 0.0594404L368.196 0.0757654L368.843 0.0940693L369.457 0.114353L370.042 0.136617L370.602 0.160864L371.141 0.187093L371.659 0.215307L372.159 0.245507L372.644 0.277694L373.113 0.311871L373.569 0.348039L374.011 0.386199L374.443 0.426354L374.863 0.468507L375.273 0.512659L375.673 0.558812L376.064 0.60697L376.446 0.657134L376.82 0.709308L377.187 0.763494L377.546 0.819696L377.898 0.877917L378.243 0.938159L378.582 1.00043L378.914 1.06472L379.241 1.13105L379.562 1.19942L379.877 1.26983L380.187 1.34228L380.491 1.41678L380.791 1.49334L381.086 1.57195L381.376 1.65263L381.662 1.73537L381.943 1.82019L382.22 1.90709L382.492 1.99608L382.761 2.08716L383.025 2.18033L383.286 2.27561L383.542 2.373L383.795 2.47251L384.045 2.57414L384.29 2.6779L384.532 2.7838L384.771 2.89185L385.006 3.00206L385.238 3.11443L385.467 3.22897L385.692 3.3457L385.915 3.46461L386.134 3.58573L386.35 3.70906L386.563 3.83461L386.773 3.9624L386.98 4.09243L387.184 4.22471L387.385 4.35927L387.584 4.49611L387.779 4.63524L387.972 4.77667L388.162 4.92043L388.35 5.06653L388.534 5.21497L388.717 5.36579L388.896 5.51899L389.073 5.67459L389.247 5.8326L389.419 5.99306L389.588 6.15597L389.755 6.32135L389.919 6.48923L390.081 6.65963L390.24 6.83257L390.397 7.00807L390.551 7.18615L390.704 7.36685L390.853 7.55018L391.001 7.73618L391.146 7.92488L391.288 8.1163L391.429 8.31047L391.567 8.50742L391.702 8.70719L391.836 8.90982L391.967 9.11535L392.096 9.3238L392.223 9.53521L392.347 9.74964L392.47 9.96713L392.59 10.1877L392.708 10.4115L392.823 10.6384L392.937 10.8686L393.048 11.1021L393.157 11.3389L393.264 11.5792L393.369 11.823L393.472 12.0704L393.573 12.3214L393.671 12.5761L393.768 12.8346L393.862 13.0969L393.954 13.3633L394.044 13.6337L394.132 13.9082L394.218 14.1871L394.302 14.4703L394.384 14.758L394.464 15.0504L394.541 15.3475L394.617 15.6496L394.691 15.9567L394.762 16.2691L394.832 16.5869L394.899 16.9104L394.964 17.2397L395.028 17.5751L395.089 17.9168L395.148 18.2652L395.206 18.6203L395.261 18.9828L395.314 19.3527L395.366 19.7307L395.415 20.1169L395.462 20.5121L395.507 20.9166L395.551 21.3311L395.592 21.7561L395.631 22.1926L395.668 22.6412L395.704 23.1029L395.737 23.5789L395.768 24.0703L395.797 24.5788L395.825 25.1059L395.85 25.6539L395.873 26.2252L395.895 26.8228L395.914 27.4508L395.932 28.114L395.947 28.8189L395.961 29.5743L395.972 30.3926L395.982 31.2927L395.989 32.305L395.995 33.4857L395.998 34.9644L396 37.2707L396 39.5Z" fill="#1B1B1B" stroke="#383838" stroke-width="2" mask="url(#path-1-inside-1_809:687)"/>
    <path d="M119.394 33.3H120.948V48H119.394V33.3ZM139.192 36.87C140.578 36.87 141.663 37.269 142.447 38.067C143.245 38.865 143.644 40.041 143.644 41.595V48H142.153V41.742C142.153 40.594 141.873 39.719 141.313 39.117C140.767 38.515 139.99 38.214 138.982 38.214C137.834 38.214 136.931 38.571 136.273 39.285C135.615 39.985 135.286 40.958 135.286 42.204V48H133.795V41.742C133.795 40.594 133.515 39.719 132.955 39.117C132.409 38.515 131.625 38.214 130.603 38.214C129.469 38.214 128.566 38.571 127.894 39.285C127.236 39.985 126.907 40.958 126.907 42.204V48H125.416V36.954H126.844V38.97C127.236 38.298 127.782 37.78 128.482 37.416C129.182 37.052 129.987 36.87 130.897 36.87C131.821 36.87 132.619 37.066 133.291 37.458C133.977 37.85 134.488 38.431 134.824 39.201C135.23 38.473 135.811 37.906 136.567 37.5C137.337 37.08 138.212 36.87 139.192 36.87ZM151.551 36.87C152.993 36.87 154.099 37.234 154.869 37.962C155.639 38.676 156.024 39.74 156.024 41.154V48H154.596V46.278C154.26 46.852 153.763 47.3 153.105 47.622C152.461 47.944 151.691 48.105 150.795 48.105C149.563 48.105 148.583 47.811 147.855 47.223C147.127 46.635 146.763 45.858 146.763 44.892C146.763 43.954 147.099 43.198 147.771 42.624C148.457 42.05 149.542 41.763 151.026 41.763H154.533V41.091C154.533 40.139 154.267 39.418 153.735 38.928C153.203 38.424 152.426 38.172 151.404 38.172C150.704 38.172 150.032 38.291 149.388 38.529C148.744 38.753 148.191 39.068 147.729 39.474L147.057 38.361C147.617 37.885 148.289 37.521 149.073 37.269C149.857 37.003 150.683 36.87 151.551 36.87ZM151.026 46.929C151.866 46.929 152.587 46.74 153.189 46.362C153.791 45.97 154.239 45.41 154.533 44.682V42.876H151.068C149.178 42.876 148.233 43.534 148.233 44.85C148.233 45.494 148.478 46.005 148.968 46.383C149.458 46.747 150.144 46.929 151.026 46.929ZM170.342 36.954V46.656C170.342 48.532 169.88 49.918 168.956 50.814C168.046 51.724 166.667 52.179 164.819 52.179C163.797 52.179 162.824 52.025 161.9 51.717C160.99 51.423 160.248 51.01 159.674 50.478L160.43 49.344C160.962 49.82 161.606 50.191 162.362 50.457C163.132 50.723 163.937 50.856 164.777 50.856C166.177 50.856 167.206 50.527 167.864 49.869C168.522 49.225 168.851 48.217 168.851 46.845V45.438C168.389 46.138 167.78 46.67 167.024 47.034C166.282 47.398 165.456 47.58 164.546 47.58C163.51 47.58 162.565 47.356 161.711 46.908C160.871 46.446 160.206 45.809 159.716 44.997C159.24 44.171 159.002 43.24 159.002 42.204C159.002 41.168 159.24 40.244 159.716 39.432C160.206 38.62 160.871 37.99 161.711 37.542C162.551 37.094 163.496 36.87 164.546 36.87C165.484 36.87 166.331 37.059 167.087 37.437C167.843 37.815 168.452 38.361 168.914 39.075V36.954H170.342ZM164.693 46.257C165.491 46.257 166.212 46.089 166.856 45.753C167.5 45.403 167.997 44.92 168.347 44.304C168.711 43.688 168.893 42.988 168.893 42.204C168.893 41.42 168.711 40.727 168.347 40.125C167.997 39.509 167.5 39.033 166.856 38.697C166.226 38.347 165.505 38.172 164.693 38.172C163.895 38.172 163.174 38.34 162.53 38.676C161.9 39.012 161.403 39.488 161.039 40.104C160.689 40.72 160.514 41.42 160.514 42.204C160.514 42.988 160.689 43.688 161.039 44.304C161.403 44.92 161.9 45.403 162.53 45.753C163.174 46.089 163.895 46.257 164.693 46.257ZM184.13 42.939H174.89C174.974 44.087 175.415 45.018 176.213 45.732C177.011 46.432 178.019 46.782 179.237 46.782C179.923 46.782 180.553 46.663 181.127 46.425C181.701 46.173 182.198 45.809 182.618 45.333L183.458 46.299C182.968 46.887 182.352 47.335 181.61 47.643C180.882 47.951 180.077 48.105 179.195 48.105C178.061 48.105 177.053 47.867 176.171 47.391C175.303 46.901 174.624 46.229 174.134 45.375C173.644 44.521 173.399 43.555 173.399 42.477C173.399 41.399 173.63 40.433 174.092 39.579C174.568 38.725 175.212 38.06 176.024 37.584C176.85 37.108 177.774 36.87 178.796 36.87C179.818 36.87 180.735 37.108 181.547 37.584C182.359 38.06 182.996 38.725 183.458 39.579C183.92 40.419 184.151 41.385 184.151 42.477L184.13 42.939ZM178.796 38.151C177.732 38.151 176.836 38.494 176.108 39.18C175.394 39.852 174.988 40.734 174.89 41.826H182.723C182.625 40.734 182.212 39.852 181.484 39.18C180.77 38.494 179.874 38.151 178.796 38.151ZM197.05 48.126C195.958 48.126 194.908 47.951 193.9 47.601C192.906 47.251 192.136 46.789 191.59 46.215L192.199 45.018C192.731 45.55 193.438 45.984 194.32 46.32C195.202 46.642 196.112 46.803 197.05 46.803C198.366 46.803 199.353 46.565 200.011 46.089C200.669 45.599 200.998 44.969 200.998 44.199C200.998 43.611 200.816 43.142 200.452 42.792C200.102 42.442 199.668 42.176 199.15 41.994C198.632 41.798 197.911 41.588 196.987 41.364C195.881 41.084 194.999 40.818 194.341 40.566C193.683 40.3 193.116 39.901 192.64 39.369C192.178 38.837 191.947 38.116 191.947 37.206C191.947 36.464 192.143 35.792 192.535 35.19C192.927 34.574 193.529 34.084 194.341 33.72C195.153 33.356 196.161 33.174 197.365 33.174C198.205 33.174 199.024 33.293 199.822 33.531C200.634 33.755 201.334 34.07 201.922 34.476L201.397 35.715C200.781 35.309 200.123 35.008 199.423 34.812C198.723 34.602 198.037 34.497 197.365 34.497C196.077 34.497 195.104 34.749 194.446 35.253C193.802 35.743 193.48 36.38 193.48 37.164C193.48 37.752 193.655 38.228 194.005 38.592C194.369 38.942 194.817 39.215 195.349 39.411C195.895 39.593 196.623 39.796 197.533 40.02C198.611 40.286 199.479 40.552 200.137 40.818C200.809 41.07 201.376 41.462 201.838 41.994C202.3 42.512 202.531 43.219 202.531 44.115C202.531 44.857 202.328 45.536 201.922 46.152C201.53 46.754 200.921 47.237 200.095 47.601C199.269 47.951 198.254 48.126 197.05 48.126ZM211.418 47.328C211.138 47.58 210.788 47.776 210.368 47.916C209.962 48.042 209.535 48.105 209.087 48.105C208.051 48.105 207.253 47.825 206.693 47.265C206.133 46.705 205.853 45.914 205.853 44.892V38.214H203.879V36.954H205.853V34.539H207.344V36.954H210.704V38.214H207.344V44.808C207.344 45.466 207.505 45.97 207.827 46.32C208.163 46.656 208.639 46.824 209.255 46.824C209.563 46.824 209.857 46.775 210.137 46.677C210.431 46.579 210.683 46.439 210.893 46.257L211.418 47.328ZM224.087 36.954V48H222.659V45.984C222.267 46.656 221.728 47.181 221.042 47.559C220.356 47.923 219.572 48.105 218.69 48.105C217.248 48.105 216.107 47.706 215.267 46.908C214.441 46.096 214.028 44.913 214.028 43.359V36.954H215.519V43.212C215.519 44.374 215.806 45.256 216.38 45.858C216.954 46.46 217.773 46.761 218.837 46.761C219.999 46.761 220.916 46.411 221.588 45.711C222.26 44.997 222.596 44.01 222.596 42.75V36.954H224.087ZM233.954 36.87C234.99 36.87 235.928 37.108 236.768 37.584C237.608 38.046 238.266 38.704 238.742 39.558C239.218 40.412 239.456 41.385 239.456 42.477C239.456 43.569 239.218 44.542 238.742 45.396C238.266 46.25 237.608 46.915 236.768 47.391C235.928 47.867 234.99 48.105 233.954 48.105C233.03 48.105 232.197 47.909 231.455 47.517C230.727 47.125 230.139 46.558 229.691 45.816V48H228.263V32.418H229.754V39.054C230.216 38.34 230.804 37.801 231.518 37.437C232.246 37.059 233.058 36.87 233.954 36.87ZM233.849 46.782C234.619 46.782 235.319 46.607 235.949 46.257C236.579 45.893 237.069 45.382 237.419 44.724C237.783 44.066 237.965 43.317 237.965 42.477C237.965 41.637 237.783 40.888 237.419 40.23C237.069 39.572 236.579 39.068 235.949 38.718C235.319 38.354 234.619 38.172 233.849 38.172C233.065 38.172 232.358 38.354 231.728 38.718C231.112 39.068 230.622 39.572 230.258 40.23C229.908 40.888 229.733 41.637 229.733 42.477C229.733 43.317 229.908 44.066 230.258 44.724C230.622 45.382 231.112 45.893 231.728 46.257C232.358 46.607 233.065 46.782 233.849 46.782ZM258.659 40.65H260.15V46.257C259.464 46.859 258.652 47.321 257.714 47.643C256.776 47.965 255.789 48.126 254.753 48.126C253.283 48.126 251.96 47.804 250.784 47.16C249.608 46.516 248.684 45.627 248.012 44.493C247.34 43.345 247.004 42.064 247.004 40.65C247.004 39.236 247.34 37.962 248.012 36.828C248.684 35.68 249.608 34.784 250.784 34.14C251.96 33.496 253.29 33.174 254.774 33.174C255.894 33.174 256.923 33.356 257.861 33.72C258.799 34.07 259.59 34.595 260.234 35.295L259.268 36.282C258.106 35.134 256.629 34.56 254.837 34.56C253.647 34.56 252.569 34.826 251.603 35.358C250.651 35.876 249.902 36.604 249.356 37.542C248.81 38.466 248.537 39.502 248.537 40.65C248.537 41.798 248.81 42.834 249.356 43.758C249.902 44.682 250.651 45.41 251.603 45.942C252.555 46.474 253.626 46.74 254.816 46.74C256.328 46.74 257.609 46.362 258.659 45.606V40.65ZM273.851 42.939H264.611C264.695 44.087 265.136 45.018 265.934 45.732C266.732 46.432 267.74 46.782 268.958 46.782C269.644 46.782 270.274 46.663 270.848 46.425C271.422 46.173 271.919 45.809 272.339 45.333L273.179 46.299C272.689 46.887 272.073 47.335 271.331 47.643C270.603 47.951 269.798 48.105 268.916 48.105C267.782 48.105 266.774 47.867 265.892 47.391C265.024 46.901 264.345 46.229 263.855 45.375C263.365 44.521 263.12 43.555 263.12 42.477C263.12 41.399 263.351 40.433 263.813 39.579C264.289 38.725 264.933 38.06 265.745 37.584C266.571 37.108 267.495 36.87 268.517 36.87C269.539 36.87 270.456 37.108 271.268 37.584C272.08 38.06 272.717 38.725 273.179 39.579C273.641 40.419 273.872 41.385 273.872 42.477L273.851 42.939ZM268.517 38.151C267.453 38.151 266.557 38.494 265.829 39.18C265.115 39.852 264.709 40.734 264.611 41.826H272.444C272.346 40.734 271.933 39.852 271.205 39.18C270.491 38.494 269.595 38.151 268.517 38.151ZM282.535 36.87C283.921 36.87 285.02 37.276 285.832 38.088C286.658 38.886 287.071 40.055 287.071 41.595V48H285.58V41.742C285.58 40.594 285.293 39.719 284.719 39.117C284.145 38.515 283.326 38.214 282.262 38.214C281.072 38.214 280.127 38.571 279.427 39.285C278.741 39.985 278.398 40.958 278.398 42.204V48H276.907V36.954H278.335V38.991C278.741 38.319 279.301 37.801 280.015 37.437C280.743 37.059 281.583 36.87 282.535 36.87ZM300.778 42.939H291.538C291.622 44.087 292.063 45.018 292.861 45.732C293.659 46.432 294.667 46.782 295.885 46.782C296.571 46.782 297.201 46.663 297.775 46.425C298.349 46.173 298.846 45.809 299.266 45.333L300.106 46.299C299.616 46.887 299 47.335 298.258 47.643C297.53 47.951 296.725 48.105 295.843 48.105C294.709 48.105 293.701 47.867 292.819 47.391C291.951 46.901 291.272 46.229 290.782 45.375C290.292 44.521 290.047 43.555 290.047 42.477C290.047 41.399 290.278 40.433 290.74 39.579C291.216 38.725 291.86 38.06 292.672 37.584C293.498 37.108 294.422 36.87 295.444 36.87C296.466 36.87 297.383 37.108 298.195 37.584C299.007 38.06 299.644 38.725 300.106 39.579C300.568 40.419 300.799 41.385 300.799 42.477L300.778 42.939ZM295.444 38.151C294.38 38.151 293.484 38.494 292.756 39.18C292.042 39.852 291.636 40.734 291.538 41.826H299.371C299.273 40.734 298.86 39.852 298.132 39.18C297.418 38.494 296.522 38.151 295.444 38.151ZM305.262 39.117C305.612 38.375 306.13 37.815 306.816 37.437C307.516 37.059 308.377 36.87 309.399 36.87V38.319L309.042 38.298C307.88 38.298 306.97 38.655 306.312 39.369C305.654 40.083 305.325 41.084 305.325 42.372V48H303.834V36.954H305.262V39.117ZM315.942 36.87C317.384 36.87 318.49 37.234 319.26 37.962C320.03 38.676 320.415 39.74 320.415 41.154V48H318.987V46.278C318.651 46.852 318.154 47.3 317.496 47.622C316.852 47.944 316.082 48.105 315.186 48.105C313.954 48.105 312.974 47.811 312.246 47.223C311.518 46.635 311.154 45.858 311.154 44.892C311.154 43.954 311.49 43.198 312.162 42.624C312.848 42.05 313.933 41.763 315.417 41.763H318.924V41.091C318.924 40.139 318.658 39.418 318.126 38.928C317.594 38.424 316.817 38.172 315.795 38.172C315.095 38.172 314.423 38.291 313.779 38.529C313.135 38.753 312.582 39.068 312.12 39.474L311.448 38.361C312.008 37.885 312.68 37.521 313.464 37.269C314.248 37.003 315.074 36.87 315.942 36.87ZM315.417 46.929C316.257 46.929 316.978 46.74 317.58 46.362C318.182 45.97 318.63 45.41 318.924 44.682V42.876H315.459C313.569 42.876 312.624 43.534 312.624 44.85C312.624 45.494 312.869 46.005 313.359 46.383C313.849 46.747 314.535 46.929 315.417 46.929ZM330.282 47.328C330.002 47.58 329.652 47.776 329.232 47.916C328.826 48.042 328.399 48.105 327.951 48.105C326.915 48.105 326.117 47.825 325.557 47.265C324.997 46.705 324.717 45.914 324.717 44.892V38.214H322.743V36.954H324.717V34.539H326.208V36.954H329.568V38.214H326.208V44.808C326.208 45.466 326.369 45.97 326.691 46.32C327.027 46.656 327.503 46.824 328.119 46.824C328.427 46.824 328.721 46.775 329.001 46.677C329.295 46.579 329.547 46.439 329.757 46.257L330.282 47.328ZM337.121 48.105C336.057 48.105 335.098 47.867 334.244 47.391C333.39 46.901 332.718 46.229 332.228 45.375C331.738 44.521 331.493 43.555 331.493 42.477C331.493 41.399 331.738 40.433 332.228 39.579C332.718 38.725 333.39 38.06 334.244 37.584C335.098 37.108 336.057 36.87 337.121 36.87C338.185 36.87 339.144 37.108 339.998 37.584C340.852 38.06 341.517 38.725 341.993 39.579C342.483 40.433 342.728 41.399 342.728 42.477C342.728 43.555 342.483 44.521 341.993 45.375C341.517 46.229 340.852 46.901 339.998 47.391C339.144 47.867 338.185 48.105 337.121 48.105ZM337.121 46.782C337.905 46.782 338.605 46.607 339.221 46.257C339.851 45.893 340.341 45.382 340.691 44.724C341.041 44.066 341.216 43.317 341.216 42.477C341.216 41.637 341.041 40.888 340.691 40.23C340.341 39.572 339.851 39.068 339.221 38.718C338.605 38.354 337.905 38.172 337.121 38.172C336.337 38.172 335.63 38.354 335 38.718C334.384 39.068 333.894 39.572 333.53 40.23C333.18 40.888 333.005 41.637 333.005 42.477C333.005 43.317 333.18 44.066 333.53 44.724C333.894 45.382 334.384 45.893 335 46.257C335.63 46.607 336.337 46.782 337.121 46.782ZM347.2 39.117C347.55 38.375 348.068 37.815 348.754 37.437C349.454 37.059 350.315 36.87 351.337 36.87V38.319L350.98 38.298C349.818 38.298 348.908 38.655 348.25 39.369C347.592 40.083 347.263 41.084 347.263 42.372V48H345.772V36.954H347.2V39.117Z" fill="url(#paint0_linear_809:687)"/>
    <path d="M56.205 33.3H58.305V48H56.205V33.3ZM66.99 48.168C65.884 48.168 64.813 48 63.777 47.664C62.755 47.314 61.95 46.866 61.362 46.32L62.139 44.682C62.699 45.186 63.413 45.599 64.281 45.921C65.163 46.229 66.066 46.383 66.99 46.383C68.208 46.383 69.118 46.18 69.72 45.774C70.322 45.354 70.623 44.801 70.623 44.115C70.623 43.611 70.455 43.205 70.119 42.897C69.797 42.575 69.391 42.33 68.901 42.162C68.425 41.994 67.746 41.805 66.864 41.595C65.758 41.329 64.862 41.063 64.176 40.797C63.504 40.531 62.923 40.125 62.433 39.579C61.957 39.019 61.719 38.27 61.719 37.332C61.719 36.548 61.922 35.841 62.328 35.211C62.748 34.581 63.378 34.077 64.218 33.699C65.058 33.321 66.101 33.132 67.347 33.132C68.215 33.132 69.069 33.244 69.909 33.468C70.749 33.692 71.47 34.014 72.072 34.434L71.379 36.114C70.763 35.722 70.105 35.428 69.405 35.232C68.705 35.022 68.019 34.917 67.347 34.917C66.157 34.917 65.261 35.134 64.659 35.568C64.071 36.002 63.777 36.562 63.777 37.248C63.777 37.752 63.945 38.165 64.281 38.487C64.617 38.795 65.03 39.04 65.52 39.222C66.024 39.39 66.703 39.572 67.557 39.768C68.663 40.034 69.552 40.3 70.224 40.566C70.896 40.832 71.47 41.238 71.946 41.784C72.436 42.33 72.681 43.065 72.681 43.989C72.681 44.759 72.471 45.466 72.051 46.11C71.631 46.74 70.994 47.244 70.14 47.622C69.286 47.986 68.236 48.168 66.99 48.168ZM85.9339 40.566H87.9499V46.299C87.2219 46.901 86.3749 47.363 85.4089 47.685C84.4429 48.007 83.4349 48.168 82.3849 48.168C80.9009 48.168 79.5639 47.846 78.3739 47.202C77.1839 46.544 76.2459 45.648 75.5599 44.514C74.8879 43.366 74.5519 42.078 74.5519 40.65C74.5519 39.222 74.8879 37.934 75.5599 36.786C76.2459 35.638 77.1839 34.742 78.3739 34.098C79.5779 33.454 80.9289 33.132 82.4269 33.132C83.6029 33.132 84.6669 33.328 85.6189 33.72C86.5849 34.098 87.4039 34.658 88.0759 35.4L86.7739 36.702C85.5979 35.568 84.1769 35.001 82.5109 35.001C81.3909 35.001 80.3829 35.246 79.4869 35.736C78.6049 36.212 77.9119 36.884 77.4079 37.752C76.9039 38.606 76.6519 39.572 76.6519 40.65C76.6519 41.714 76.9039 42.68 77.4079 43.548C77.9119 44.402 78.6049 45.074 79.4869 45.564C80.3829 46.054 81.3839 46.299 82.4899 46.299C83.8059 46.299 84.9539 45.984 85.9339 45.354V40.566Z" fill="url(#paint1_linear_809:687)"/>
    <mask id="path-4-inside-2_809:687" fill="white">
        <path fill-rule="evenodd" clip-rule="evenodd" d="M101 40L100.999 42.9L100.997 44.1011L100.993 45.0226L100.988 45.7992L100.982 46.4832L100.974 47.1014L100.964 47.6695L100.954 48.1981L100.941 48.6941L100.927 49.163L100.912 49.6085L100.896 50.0338L100.877 50.4414L100.858 50.8331L100.837 51.2106L100.814 51.5752L100.79 51.9282L100.765 52.2704L100.738 52.6028L100.71 52.926L100.68 53.2406L100.648 53.5474L100.616 53.8466L100.581 54.1389L100.546 54.4245L100.508 54.7039L100.47 54.9773L100.43 55.2452L100.388 55.5076L100.345 55.7649L100.3 56.0173L100.254 56.265L100.207 56.5082L100.158 56.747L100.107 56.9817L100.055 57.2123L100.002 57.439L99.9465 57.6619L99.8899 57.8812L99.8319 58.097L99.7723 58.3093L99.7111 58.5183L99.6485 58.724L99.5843 58.9266L99.5186 59.126L99.4514 59.3225L99.3826 59.5161L99.3123 59.7068L99.2404 59.8946L99.167 60.0798L99.092 60.2622L99.0155 60.442L98.9373 60.6192L98.8576 60.7939L98.7763 60.9662L98.6935 61.1359L98.609 61.3033L98.5229 61.4683L98.4352 61.631L98.3459 61.7914L98.255 61.9495L98.1624 62.1054L98.0682 62.2592L97.9723 62.4107L97.8748 62.5602L97.7756 62.7075L97.6748 62.8528L97.5722 62.996L97.468 63.1372L97.362 63.2763L97.2543 63.4135L97.1449 63.5487L97.0338 63.682L96.9209 63.8134L96.8063 63.9428L96.6898 64.0704L96.5716 64.1961L96.4515 64.3199L96.3297 64.4419L96.206 64.5621L96.0804 64.6805L95.953 64.7971L95.8237 64.9118L95.6925 65.0249L95.5594 65.1362L95.4243 65.2457L95.2873 65.3535L95.1483 65.4596L95.0073 65.564L94.8643 65.6667L94.7192 65.7677L94.572 65.867L94.4227 65.9646L94.2713 66.0606L94.1178 66.155L93.962 66.2477L93.8041 66.3387L93.6438 66.4282L93.4813 66.516L93.3165 66.6022L93.1493 66.6868L92.9798 66.7698L92.8078 66.8512L92.6333 66.9311L92.4562 67.0093L92.2766 67.086L92.0944 67.1611L91.9095 67.2347L91.7218 67.3067L91.5314 67.3771L91.338 67.446L91.1418 67.5134L90.9426 67.5792L90.7402 67.6435L90.5348 67.7062L90.3261 67.7675L90.114 67.8272L89.8985 67.8854L89.6795 67.9421L89.4569 67.9972L89.2305 68.0509L89.0002 68.1031L88.7659 68.1537L88.5274 68.2029L88.2845 68.2506L88.0372 68.2968L87.7852 68.3415L87.5283 68.3847L87.2663 68.4264L86.9989 68.4667L86.7259 68.5055L86.447 68.5428L86.1619 68.5786L85.8701 68.6129L85.5715 68.6458L85.2654 68.6772L84.9513 68.7072L84.6288 68.7357L84.2973 68.7627L83.9558 68.7883L83.6038 68.8124L83.2401 68.835L82.8636 68.8562L82.4731 68.8759L82.0669 68.8941L81.6431 68.911L81.1992 68.9263L80.7324 68.9402L80.2387 68.9527L79.713 68.9637L79.1483 68.9732L78.5346 68.9813L77.8566 68.9879L77.0888 68.9931L76.1819 68.9969L75.0132 68.9992L72.8183 69L69.2179 68.9994L67.9814 68.9973L67.0445 68.9938L66.2587 68.9889L65.5685 68.9824L64.9458 68.9746L64.3741 68.9653L63.8427 68.9545L63.3443 68.9423L62.8735 68.9286L62.4262 68.9135L61.9993 68.8969L61.5905 68.8789L61.1976 68.8594L60.819 68.8385L60.4533 68.8161L60.0995 68.7922L59.7564 68.7669L59.4233 68.7401L59.0994 68.7118L58.7841 68.6821L58.4768 68.6509L58.1769 68.6183L57.8841 68.5842L57.598 68.5486L57.3181 68.5115L57.0442 68.473L56.7759 68.4329L56.5131 68.3914L56.2554 68.3485L56.0026 68.304L55.7545 68.2581L55.511 68.2106L55.2718 68.1617L55.0369 68.1112L54.8059 68.0593L54.5789 68.0059L54.3557 67.9509L54.1361 67.8945L53.9201 67.8365L53.7075 67.7771L53.4982 67.7161L53.2922 67.6536L53.0894 67.5895L52.8897 67.5239L52.693 67.4568L52.4992 67.3882L52.3083 67.318L52.1202 67.2462L51.9349 67.1729L51.7522 67.0981L51.5722 67.0216L51.3948 66.9436L51.2199 66.8641L51.0474 66.7829L50.8775 66.7001L50.7099 66.6158L50.5447 66.5298L50.3819 66.4423L50.2213 66.3531L50.063 66.2623L49.9069 66.1698L49.753 66.0758L49.6012 65.98L49.4516 65.8827L49.3041 65.7836L49.1587 65.6829L49.0153 65.5805L48.874 65.4763L48.7347 65.3705L48.5973 65.263L48.462 65.1537L48.3285 65.0427L48.197 64.93L48.0674 64.8154L47.9397 64.6992L47.8139 64.5811L47.6899 64.4612L47.5677 64.3395L47.4474 64.2159L47.3289 64.0905L47.2122 63.9633L47.0972 63.8341L46.984 63.7031L46.8726 63.5701L46.7629 63.4352L46.655 63.2983L46.5488 63.1595L46.4442 63.0186L46.3414 62.8757L46.2403 62.7308L46.1408 62.5838L46.0431 62.4347L45.9469 62.2835L45.8525 62.1301L45.7596 61.9745L45.6684 61.8167L45.5789 61.6567L45.4909 61.4944L45.4046 61.3297L45.3199 61.1627L45.2367 60.9934L45.1552 60.8215L45.0752 60.6472L44.9968 60.4704L44.92 60.291L44.8448 60.109L44.7711 59.9243L44.699 59.7369L44.6284 59.5466L44.5594 59.3535L44.4919 59.1575L44.426 58.9585L44.3616 58.7565L44.2987 58.5513L44.2373 58.3428L44.1775 58.131L44.1192 57.9158L44.0624 57.6971L44.0071 57.4748L43.9533 57.2486L43.901 57.0187L43.8502 56.7847L43.8009 56.5465L43.7531 56.304L43.7068 56.0571L43.662 55.8054L43.6187 55.5489L43.5768 55.2873L43.5364 55.0204L43.4976 54.7478L43.4601 54.4694L43.4242 54.1848L43.3897 53.8936L43.3567 53.5955L43.3252 53.29L43.2951 52.9766L43.2665 52.6548L43.2394 52.324L43.2137 51.9834L43.1895 51.6322L43.1667 51.2695L43.1455 50.8941L43.1256 50.5048L43.1072 50.0999L43.0903 49.6775L43.0748 49.2354L43.0608 48.7705L43.0483 48.2791L43.0371 47.7561L43.0275 47.1949L43.0193 46.5856L43.0125 45.9135L43.0072 45.1541L43.0034 44.2612L43.001 43.1224L43 41.1573L43.0005 37.3409L43.0024 36.0656L43.0058 35.1125L43.0107 34.3173L43.017 33.6207L43.0247 32.9934L43.0339 32.418L43.0446 31.8838L43.0567 31.3829L43.0702 30.91L43.0852 30.461L43.1017 30.0326L43.1196 29.6224L43.139 29.2283L43.1598 28.8486L43.1821 28.482L43.2058 28.1272L43.2311 27.7833L43.2577 27.4495L43.2859 27.1249L43.3155 26.8089L43.3465 26.5009L43.379 26.2005L43.4131 25.9072L43.4485 25.6205L43.4855 25.3402L43.5239 25.0658L43.5638 24.7971L43.6052 24.5338L43.648 24.2757L43.6924 24.0225L43.7382 23.7741L43.7855 23.5302L43.8344 23.2907L43.8847 23.0554L43.9365 22.8242L43.9898 22.5968L44.0446 22.3733L44.1009 22.1534L44.1588 21.9371L44.2181 21.7243L44.279 21.5148L44.3414 21.3085L44.4053 21.1054L44.4708 20.9055L44.5378 20.7085L44.6063 20.5145L44.6764 20.3234L44.748 20.1351L44.8212 19.9495L44.8959 19.7666L44.9722 19.5864L45.0501 19.4088L45.1295 19.2337L45.2106 19.0611L45.2932 18.8909L45.3774 18.7232L45.4632 18.5578L45.5507 18.3947L45.6397 18.234L45.7304 18.0755L45.8227 17.9192L45.9167 17.7651L46.0123 17.6132L46.1095 17.4634L46.2084 17.3158L46.309 17.1702L46.4113 17.0267L46.5153 16.8852L46.621 16.7457L46.7284 16.6082L46.8375 16.4726L46.9484 16.3391L47.061 16.2074L47.1753 16.0776L47.2915 15.9498L47.4094 15.8238L47.5292 15.6997L47.6508 15.5774L47.7742 15.4569L47.8994 15.3382L48.0265 15.2214L48.1555 15.1063L48.2864 14.993L48.4192 14.8814L48.554 14.7716L48.6907 14.6635L48.8294 14.5571L48.9701 14.4525L49.1128 14.3495L49.2576 14.2483L49.4044 14.1487L49.5533 14.0508L49.7044 13.9545L49.8576 13.8599L50.013 13.7669L50.1706 13.6756L50.3305 13.5859L50.4926 13.4978L50.6571 13.4114L50.8239 13.3265L50.993 13.2433L51.1647 13.1616L51.3388 13.0815L51.5154 13.003L51.6946 12.9261L51.8764 12.8507L52.0609 12.7769L52.2481 12.7047L52.4381 12.634L52.6309 12.5648L52.8267 12.4972L53.0255 12.4312L53.2273 12.3666L53.4323 12.3036L53.6405 12.2422L53.852 12.1822L54.0669 12.1238L54.2853 12.0668L54.5074 12.0114L54.7332 11.9575L54.9629 11.9051L55.1965 11.8542L55.4344 11.8048L55.6765 11.7569L55.9231 11.7104L56.1743 11.6655L56.4305 11.622L56.6916 11.5801L56.9581 11.5396L57.2302 11.5006L57.5082 11.463L57.7923 11.427L58.0829 11.3924L58.3805 11.3593L58.6854 11.3276L58.9981 11.2974L59.3192 11.2687L59.6493 11.2415L59.9891 11.2157L60.3394 11.1914L60.7012 11.1685L61.0755 11.1471L61.4637 11.1271L61.8673 11.1086L62.2881 11.0916L62.7286 11.076L63.1915 11.0619L63.6807 11.0492L64.2009 11.038L64.7588 11.0282L65.3638 11.0199L66.0302 11.013L66.7813 11.0076L67.6609 11.0036L68.7722 11.0011L70.5826 11L74.53 11.0004L75.8484 11.0022L76.8185 11.0055L77.6235 11.0102L78.3266 11.0164L78.9587 11.024L79.5377 11.0331L80.075 11.0436L80.5783 11.0556L81.0532 11.0691L81.504 11.084L81.9339 11.1003L82.3455 11.1181L82.7408 11.1374L83.1216 11.1581L83.4892 11.1802L83.8449 11.2039L84.1896 11.229L84.5242 11.2555L84.8496 11.2835L85.1662 11.313L85.4748 11.344L85.7758 11.3764L86.0697 11.4103L86.3569 11.4456L86.6377 11.4825L86.9125 11.5208L87.1817 11.5605L87.4454 11.6018L87.7039 11.6445L87.9574 11.6888L88.2062 11.7345L88.4505 11.7817L88.6903 11.8304L88.926 11.8806L89.1575 11.9323L89.3852 11.9855L89.609 12.0402L89.8292 12.0964L90.0458 12.1541L90.2589 12.2133L90.4686 12.2741L90.6751 12.3363L90.8785 12.4001L91.0787 12.4655L91.2759 12.5323L91.4701 12.6008L91.6615 12.6707L91.85 12.7422L92.0358 12.8153L92.2189 12.8899L92.3993 12.9661L92.5771 13.0438L92.7524 13.1231L92.9252 13.204L93.0956 13.2865L93.2635 13.3706L93.4291 13.4563L93.5923 13.5436L93.7533 13.6326L93.9119 13.7231L94.0684 13.8153L94.2226 13.9091L94.3747 14.0046L94.5247 14.1017L94.6725 14.2005L94.8183 14.3009L94.9619 14.4031L95.1036 14.5069L95.2433 14.6125L95.3809 14.7197L95.5166 14.8287L95.6503 14.9394L95.7822 15.0519L95.9121 15.1662L96.0401 15.2822L96.1662 15.4L96.2905 15.5196L96.4129 15.641L96.5335 15.7642L96.6523 15.8893L96.7694 16.0163L96.8846 16.1452L96.998 16.2759L97.1097 16.4086L97.2197 16.5432L97.3279 16.6797L97.4344 16.8183L97.5392 16.9588L97.6423 17.1014L97.7437 17.246L97.8434 17.3926L97.9415 17.5414L98.0378 17.6923L98.1326 17.8453L98.2257 18.0005L98.3171 18.158L98.407 18.3176L98.4952 18.4796L98.5817 18.6439L98.6667 18.8105L98.7501 18.9795L98.8319 19.1509L98.9121 19.3248L98.9908 19.5012L99.0678 19.6802L99.1433 19.8618L99.2172 20.0461L99.2896 20.2331L99.3604 20.4228L99.4297 20.6155L99.4974 20.811L99.5636 21.0095L99.6282 21.2111L99.6914 21.4158L99.753 21.6237L99.813 21.835L99.8716 22.0496L99.9286 22.2678L99.9842 22.4896L100.038 22.7151L100.091 22.9444L100.142 23.1778L100.191 23.4152L100.239 23.657L100.286 23.9033L100.331 24.1541L100.375 24.4099L100.417 24.6706L100.457 24.9367L100.496 25.2083L100.534 25.4858L100.57 25.7694L100.605 26.0595L100.638 26.3565L100.67 26.6608L100.7 26.9729L100.729 27.2933L100.756 27.6226L100.782 27.9616L100.807 28.3111L100.83 28.6719L100.851 29.0452L100.871 29.4322L100.89 29.8345L100.907 30.2539L100.923 30.6927L100.937 31.1538L100.95 31.6407L100.961 32.1582L100.971 32.7128L100.979 33.3136L100.986 33.9744L100.992 34.7176L100.996 35.5844L100.999 36.67L101 38.3633L101 40Z"/>
    </mask>
    <path fill-rule="evenodd" clip-rule="evenodd" d="M101 40L100.999 42.9L100.997 44.1011L100.993 45.0226L100.988 45.7992L100.982 46.4832L100.974 47.1014L100.964 47.6695L100.954 48.1981L100.941 48.6941L100.927 49.163L100.912 49.6085L100.896 50.0338L100.877 50.4414L100.858 50.8331L100.837 51.2106L100.814 51.5752L100.79 51.9282L100.765 52.2704L100.738 52.6028L100.71 52.926L100.68 53.2406L100.648 53.5474L100.616 53.8466L100.581 54.1389L100.546 54.4245L100.508 54.7039L100.47 54.9773L100.43 55.2452L100.388 55.5076L100.345 55.7649L100.3 56.0173L100.254 56.265L100.207 56.5082L100.158 56.747L100.107 56.9817L100.055 57.2123L100.002 57.439L99.9465 57.6619L99.8899 57.8812L99.8319 58.097L99.7723 58.3093L99.7111 58.5183L99.6485 58.724L99.5843 58.9266L99.5186 59.126L99.4514 59.3225L99.3826 59.5161L99.3123 59.7068L99.2404 59.8946L99.167 60.0798L99.092 60.2622L99.0155 60.442L98.9373 60.6192L98.8576 60.7939L98.7763 60.9662L98.6935 61.1359L98.609 61.3033L98.5229 61.4683L98.4352 61.631L98.3459 61.7914L98.255 61.9495L98.1624 62.1054L98.0682 62.2592L97.9723 62.4107L97.8748 62.5602L97.7756 62.7075L97.6748 62.8528L97.5722 62.996L97.468 63.1372L97.362 63.2763L97.2543 63.4135L97.1449 63.5487L97.0338 63.682L96.9209 63.8134L96.8063 63.9428L96.6898 64.0704L96.5716 64.1961L96.4515 64.3199L96.3297 64.4419L96.206 64.5621L96.0804 64.6805L95.953 64.7971L95.8237 64.9118L95.6925 65.0249L95.5594 65.1362L95.4243 65.2457L95.2873 65.3535L95.1483 65.4596L95.0073 65.564L94.8643 65.6667L94.7192 65.7677L94.572 65.867L94.4227 65.9646L94.2713 66.0606L94.1178 66.155L93.962 66.2477L93.8041 66.3387L93.6438 66.4282L93.4813 66.516L93.3165 66.6022L93.1493 66.6868L92.9798 66.7698L92.8078 66.8512L92.6333 66.9311L92.4562 67.0093L92.2766 67.086L92.0944 67.1611L91.9095 67.2347L91.7218 67.3067L91.5314 67.3771L91.338 67.446L91.1418 67.5134L90.9426 67.5792L90.7402 67.6435L90.5348 67.7062L90.3261 67.7675L90.114 67.8272L89.8985 67.8854L89.6795 67.9421L89.4569 67.9972L89.2305 68.0509L89.0002 68.1031L88.7659 68.1537L88.5274 68.2029L88.2845 68.2506L88.0372 68.2968L87.7852 68.3415L87.5283 68.3847L87.2663 68.4264L86.9989 68.4667L86.7259 68.5055L86.447 68.5428L86.1619 68.5786L85.8701 68.6129L85.5715 68.6458L85.2654 68.6772L84.9513 68.7072L84.6288 68.7357L84.2973 68.7627L83.9558 68.7883L83.6038 68.8124L83.2401 68.835L82.8636 68.8562L82.4731 68.8759L82.0669 68.8941L81.6431 68.911L81.1992 68.9263L80.7324 68.9402L80.2387 68.9527L79.713 68.9637L79.1483 68.9732L78.5346 68.9813L77.8566 68.9879L77.0888 68.9931L76.1819 68.9969L75.0132 68.9992L72.8183 69L69.2179 68.9994L67.9814 68.9973L67.0445 68.9938L66.2587 68.9889L65.5685 68.9824L64.9458 68.9746L64.3741 68.9653L63.8427 68.9545L63.3443 68.9423L62.8735 68.9286L62.4262 68.9135L61.9993 68.8969L61.5905 68.8789L61.1976 68.8594L60.819 68.8385L60.4533 68.8161L60.0995 68.7922L59.7564 68.7669L59.4233 68.7401L59.0994 68.7118L58.7841 68.6821L58.4768 68.6509L58.1769 68.6183L57.8841 68.5842L57.598 68.5486L57.3181 68.5115L57.0442 68.473L56.7759 68.4329L56.5131 68.3914L56.2554 68.3485L56.0026 68.304L55.7545 68.2581L55.511 68.2106L55.2718 68.1617L55.0369 68.1112L54.8059 68.0593L54.5789 68.0059L54.3557 67.9509L54.1361 67.8945L53.9201 67.8365L53.7075 67.7771L53.4982 67.7161L53.2922 67.6536L53.0894 67.5895L52.8897 67.5239L52.693 67.4568L52.4992 67.3882L52.3083 67.318L52.1202 67.2462L51.9349 67.1729L51.7522 67.0981L51.5722 67.0216L51.3948 66.9436L51.2199 66.8641L51.0474 66.7829L50.8775 66.7001L50.7099 66.6158L50.5447 66.5298L50.3819 66.4423L50.2213 66.3531L50.063 66.2623L49.9069 66.1698L49.753 66.0758L49.6012 65.98L49.4516 65.8827L49.3041 65.7836L49.1587 65.6829L49.0153 65.5805L48.874 65.4763L48.7347 65.3705L48.5973 65.263L48.462 65.1537L48.3285 65.0427L48.197 64.93L48.0674 64.8154L47.9397 64.6992L47.8139 64.5811L47.6899 64.4612L47.5677 64.3395L47.4474 64.2159L47.3289 64.0905L47.2122 63.9633L47.0972 63.8341L46.984 63.7031L46.8726 63.5701L46.7629 63.4352L46.655 63.2983L46.5488 63.1595L46.4442 63.0186L46.3414 62.8757L46.2403 62.7308L46.1408 62.5838L46.0431 62.4347L45.9469 62.2835L45.8525 62.1301L45.7596 61.9745L45.6684 61.8167L45.5789 61.6567L45.4909 61.4944L45.4046 61.3297L45.3199 61.1627L45.2367 60.9934L45.1552 60.8215L45.0752 60.6472L44.9968 60.4704L44.92 60.291L44.8448 60.109L44.7711 59.9243L44.699 59.7369L44.6284 59.5466L44.5594 59.3535L44.4919 59.1575L44.426 58.9585L44.3616 58.7565L44.2987 58.5513L44.2373 58.3428L44.1775 58.131L44.1192 57.9158L44.0624 57.6971L44.0071 57.4748L43.9533 57.2486L43.901 57.0187L43.8502 56.7847L43.8009 56.5465L43.7531 56.304L43.7068 56.0571L43.662 55.8054L43.6187 55.5489L43.5768 55.2873L43.5364 55.0204L43.4976 54.7478L43.4601 54.4694L43.4242 54.1848L43.3897 53.8936L43.3567 53.5955L43.3252 53.29L43.2951 52.9766L43.2665 52.6548L43.2394 52.324L43.2137 51.9834L43.1895 51.6322L43.1667 51.2695L43.1455 50.8941L43.1256 50.5048L43.1072 50.0999L43.0903 49.6775L43.0748 49.2354L43.0608 48.7705L43.0483 48.2791L43.0371 47.7561L43.0275 47.1949L43.0193 46.5856L43.0125 45.9135L43.0072 45.1541L43.0034 44.2612L43.001 43.1224L43 41.1573L43.0005 37.3409L43.0024 36.0656L43.0058 35.1125L43.0107 34.3173L43.017 33.6207L43.0247 32.9934L43.0339 32.418L43.0446 31.8838L43.0567 31.3829L43.0702 30.91L43.0852 30.461L43.1017 30.0326L43.1196 29.6224L43.139 29.2283L43.1598 28.8486L43.1821 28.482L43.2058 28.1272L43.2311 27.7833L43.2577 27.4495L43.2859 27.1249L43.3155 26.8089L43.3465 26.5009L43.379 26.2005L43.4131 25.9072L43.4485 25.6205L43.4855 25.3402L43.5239 25.0658L43.5638 24.7971L43.6052 24.5338L43.648 24.2757L43.6924 24.0225L43.7382 23.7741L43.7855 23.5302L43.8344 23.2907L43.8847 23.0554L43.9365 22.8242L43.9898 22.5968L44.0446 22.3733L44.1009 22.1534L44.1588 21.9371L44.2181 21.7243L44.279 21.5148L44.3414 21.3085L44.4053 21.1054L44.4708 20.9055L44.5378 20.7085L44.6063 20.5145L44.6764 20.3234L44.748 20.1351L44.8212 19.9495L44.8959 19.7666L44.9722 19.5864L45.0501 19.4088L45.1295 19.2337L45.2106 19.0611L45.2932 18.8909L45.3774 18.7232L45.4632 18.5578L45.5507 18.3947L45.6397 18.234L45.7304 18.0755L45.8227 17.9192L45.9167 17.7651L46.0123 17.6132L46.1095 17.4634L46.2084 17.3158L46.309 17.1702L46.4113 17.0267L46.5153 16.8852L46.621 16.7457L46.7284 16.6082L46.8375 16.4726L46.9484 16.3391L47.061 16.2074L47.1753 16.0776L47.2915 15.9498L47.4094 15.8238L47.5292 15.6997L47.6508 15.5774L47.7742 15.4569L47.8994 15.3382L48.0265 15.2214L48.1555 15.1063L48.2864 14.993L48.4192 14.8814L48.554 14.7716L48.6907 14.6635L48.8294 14.5571L48.9701 14.4525L49.1128 14.3495L49.2576 14.2483L49.4044 14.1487L49.5533 14.0508L49.7044 13.9545L49.8576 13.8599L50.013 13.7669L50.1706 13.6756L50.3305 13.5859L50.4926 13.4978L50.6571 13.4114L50.8239 13.3265L50.993 13.2433L51.1647 13.1616L51.3388 13.0815L51.5154 13.003L51.6946 12.9261L51.8764 12.8507L52.0609 12.7769L52.2481 12.7047L52.4381 12.634L52.6309 12.5648L52.8267 12.4972L53.0255 12.4312L53.2273 12.3666L53.4323 12.3036L53.6405 12.2422L53.852 12.1822L54.0669 12.1238L54.2853 12.0668L54.5074 12.0114L54.7332 11.9575L54.9629 11.9051L55.1965 11.8542L55.4344 11.8048L55.6765 11.7569L55.9231 11.7104L56.1743 11.6655L56.4305 11.622L56.6916 11.5801L56.9581 11.5396L57.2302 11.5006L57.5082 11.463L57.7923 11.427L58.0829 11.3924L58.3805 11.3593L58.6854 11.3276L58.9981 11.2974L59.3192 11.2687L59.6493 11.2415L59.9891 11.2157L60.3394 11.1914L60.7012 11.1685L61.0755 11.1471L61.4637 11.1271L61.8673 11.1086L62.2881 11.0916L62.7286 11.076L63.1915 11.0619L63.6807 11.0492L64.2009 11.038L64.7588 11.0282L65.3638 11.0199L66.0302 11.013L66.7813 11.0076L67.6609 11.0036L68.7722 11.0011L70.5826 11L74.53 11.0004L75.8484 11.0022L76.8185 11.0055L77.6235 11.0102L78.3266 11.0164L78.9587 11.024L79.5377 11.0331L80.075 11.0436L80.5783 11.0556L81.0532 11.0691L81.504 11.084L81.9339 11.1003L82.3455 11.1181L82.7408 11.1374L83.1216 11.1581L83.4892 11.1802L83.8449 11.2039L84.1896 11.229L84.5242 11.2555L84.8496 11.2835L85.1662 11.313L85.4748 11.344L85.7758 11.3764L86.0697 11.4103L86.3569 11.4456L86.6377 11.4825L86.9125 11.5208L87.1817 11.5605L87.4454 11.6018L87.7039 11.6445L87.9574 11.6888L88.2062 11.7345L88.4505 11.7817L88.6903 11.8304L88.926 11.8806L89.1575 11.9323L89.3852 11.9855L89.609 12.0402L89.8292 12.0964L90.0458 12.1541L90.2589 12.2133L90.4686 12.2741L90.6751 12.3363L90.8785 12.4001L91.0787 12.4655L91.2759 12.5323L91.4701 12.6008L91.6615 12.6707L91.85 12.7422L92.0358 12.8153L92.2189 12.8899L92.3993 12.9661L92.5771 13.0438L92.7524 13.1231L92.9252 13.204L93.0956 13.2865L93.2635 13.3706L93.4291 13.4563L93.5923 13.5436L93.7533 13.6326L93.9119 13.7231L94.0684 13.8153L94.2226 13.9091L94.3747 14.0046L94.5247 14.1017L94.6725 14.2005L94.8183 14.3009L94.9619 14.4031L95.1036 14.5069L95.2433 14.6125L95.3809 14.7197L95.5166 14.8287L95.6503 14.9394L95.7822 15.0519L95.9121 15.1662L96.0401 15.2822L96.1662 15.4L96.2905 15.5196L96.4129 15.641L96.5335 15.7642L96.6523 15.8893L96.7694 16.0163L96.8846 16.1452L96.998 16.2759L97.1097 16.4086L97.2197 16.5432L97.3279 16.6797L97.4344 16.8183L97.5392 16.9588L97.6423 17.1014L97.7437 17.246L97.8434 17.3926L97.9415 17.5414L98.0378 17.6923L98.1326 17.8453L98.2257 18.0005L98.3171 18.158L98.407 18.3176L98.4952 18.4796L98.5817 18.6439L98.6667 18.8105L98.7501 18.9795L98.8319 19.1509L98.9121 19.3248L98.9908 19.5012L99.0678 19.6802L99.1433 19.8618L99.2172 20.0461L99.2896 20.2331L99.3604 20.4228L99.4297 20.6155L99.4974 20.811L99.5636 21.0095L99.6282 21.2111L99.6914 21.4158L99.753 21.6237L99.813 21.835L99.8716 22.0496L99.9286 22.2678L99.9842 22.4896L100.038 22.7151L100.091 22.9444L100.142 23.1778L100.191 23.4152L100.239 23.657L100.286 23.9033L100.331 24.1541L100.375 24.4099L100.417 24.6706L100.457 24.9367L100.496 25.2083L100.534 25.4858L100.57 25.7694L100.605 26.0595L100.638 26.3565L100.67 26.6608L100.7 26.9729L100.729 27.2933L100.756 27.6226L100.782 27.9616L100.807 28.3111L100.83 28.6719L100.851 29.0452L100.871 29.4322L100.89 29.8345L100.907 30.2539L100.923 30.6927L100.937 31.1538L100.95 31.6407L100.961 32.1582L100.971 32.7128L100.979 33.3136L100.986 33.9744L100.992 34.7176L100.996 35.5844L100.999 36.67L101 38.3633L101 40Z" stroke="url(#paint2_linear_809:687)" stroke-width="4" mask="url(#path-4-inside-2_809:687)"/>
    <defs>
        <linearGradient id="paint0_linear_809:687" x1="117" y1="33.0517" x2="246.316" y2="159.454" gradientUnits="userSpaceOnUse">
            <stop stop-color="#616161"/>
            <stop offset="1" stop-color="#A2A2A2"/>
        </linearGradient>
        <linearGradient id="paint1_linear_809:687" x1="54" y1="33.0517" x2="91.7344" y2="38.6781" gradientUnits="userSpaceOnUse">
            <stop stop-color="#616161"/>
            <stop offset="1" stop-color="#A2A2A2"/>
        </linearGradient>
        <linearGradient id="paint2_linear_809:687" x1="43" y1="15.2097" x2="101" y2="63.8548" gradientUnits="userSpaceOnUse">
            <stop stop-color="#A7A7A7"/>
            <stop offset="1" stop-color="#404040"/>
        </linearGradient>
    </defs>
</svg>
